<?xml version="1.0" encoding="UTF-8"?>
<svg width="220px" height="36px" viewBox="0 0 220 36" version="1.1" xmlns="http://www.w3.org/2000/svg" xmlns:xlink="http://www.w3.org/1999/xlink">
    <title>8FDDB8FE-9BB7-4C8B-A069-52E2CB6A7362</title>
    <defs>
        <polygon id="path-1" points="0 35.2231967 218.606557 35.2231967 218.606557 0 0 0"></polygon>
    </defs>
    <g id="LeCatalyseur.Desktop" stroke="none" stroke-width="1" fill="none" fill-rule="evenodd">
        <g id="00_Home" transform="translate(-128.000000, -48.000000)">
            <g id="Logo_Catalyseur" transform="translate(128.573770, 48.000000)">
                <path d="M36.4667869,9.20442623 C36.5626066,8.48147541 36.6188361,7.74934426 36.7617049,7.03442623 C37.184,4.91204918 38.0647377,3.03065574 39.7544918,1.59852459 C41.3386721,0.257622951 43.1942459,-0.193934426 45.199,0.0923770492 C48.299082,0.535327869 50.0708852,2.53032787 51.0371148,5.36819672 C51.1822787,5.79680328 51.261459,6.24663934 51.379082,6.71827869 C50.1701475,6.91565574 49.0134262,7.105 47.8635902,7.29262295 C47.6604754,6.72459016 47.4952295,6.16172131 47.2617049,5.6292623 C46.9088361,4.82483607 46.3912951,4.13114754 45.6046557,3.70139344 C44.3148197,2.99795082 42.9280164,3.29631148 41.9256393,4.45303279 C41.1361311,5.36590164 40.7637541,6.46295082 40.5537541,7.61909836 C40.2060492,9.53147541 40.2404754,11.4289344 40.951377,13.2644262 C41.4430984,14.5307377 42.1935902,15.597377 43.531623,16.0948361 C44.6871967,16.5240164 45.8003115,16.3983607 46.8170328,15.6920492 C48.0271148,14.8509016 48.5480984,13.587459 48.8688361,12.215 C48.9319508,11.9470492 48.9721148,11.6733607 49.0335082,11.3468852 C50.224082,11.5637705 51.4071967,11.7789344 52.619,11.9998361 C52.4003934,13.7079508 51.904082,15.2835246 50.8930984,16.6577049 C49.5780164,18.4444262 47.8056393,19.4284426 45.5828525,19.6154918 C43.636623,19.7790164 41.8407213,19.4003279 40.2318689,18.2579508 C38.7630164,17.2136885 37.8162951,15.7878689 37.2012131,14.1204918 C36.8110492,13.0653279 36.5981803,11.9722951 36.5253115,10.8505738 C36.5172787,10.7346721 36.4868689,10.6187705 36.4667869,10.5034426 L36.4667869,9.20442623" id="Fill-2" fill="#353944"></path>
                <path d="M182.259689,11.7393443 L182.259689,18.9958197 L178.498049,18.9958197 L178.498049,0.648934426 C178.601328,0.64204918 178.70518,0.628852459 178.809033,0.628852459 C181.033541,0.627704918 183.258049,0.604180328 185.481984,0.636311475 C187.091984,0.659836066 188.607885,1.02303279 189.913787,2.05581967 C192.716656,4.27229508 192.46018,8.83090164 189.39682,10.7134426 C189.642393,10.8591803 189.90059,10.9739344 190.113459,11.144918 C190.797393,11.6917213 191.18182,12.4221311 191.19559,13.2913934 C191.224852,15.1297541 191.207639,16.9686885 191.207639,18.807623 C191.207639,18.865 191.189279,18.9218033 191.17723,18.9958197 L187.372557,18.9958197 C187.372557,18.8414754 187.371984,18.7037705 187.372557,18.5637705 C187.372557,17.0008197 187.378295,15.4384426 187.370836,13.8760656 C187.366246,13.0280328 187.048377,12.3343443 186.28641,11.9 C186.144689,11.8190984 185.973705,11.7485246 185.815918,11.7462295 C184.65059,11.7336066 183.485836,11.7393443 182.259689,11.7393443 M182.328541,3.71401639 L182.328541,8.85557377 C183.333213,8.85557377 184.316656,8.87737705 185.298377,8.84467213 C185.696574,8.83090164 186.107967,8.74483607 186.482639,8.60770492 C187.542393,8.22155738 188.135098,7.13942623 188.004852,5.91385246 C187.885508,4.78868852 187.050098,3.81385246 185.953623,3.73352459 C184.761328,3.64688525 183.558131,3.71401639 182.328541,3.71401639" id="Fill-4" fill="#353944"></path>
                <path d="M83.7028443,18.9963361 C83.8457131,18.4145328 83.983418,17.8476475 84.1245656,17.2824836 C85.3203033,12.5075656 86.5166148,7.73264754 87.7129262,2.95830328 C87.8793197,2.29445082 88.0571885,1.63346721 88.2155492,0.967893443 C88.2717787,0.733221311 88.3727623,0.627647541 88.6303852,0.628785831 C90.5662869,0.637401639 92.5016148,0.637401639 94.4375164,0.628785831 C94.7043197,0.628221311 94.8070246,0.725762295 94.8707131,0.983385246 C96.1903852,6.30797541 97.5198115,11.6302705 98.8480902,16.9525656 C99.0173525,17.6273197 99.1912049,18.3009262 99.3702213,19.0078115 C99.2531721,19.0255984 99.1642377,19.0508443 99.0741557,19.0508443 C97.9799754,19.0531393 96.8863689,19.043959 95.7916148,19.0554964 C95.5121885,19.0583033 95.3957131,18.9619098 95.3371885,18.6847787 C95.1128443,17.6278934 94.8557951,16.5784672 94.6268607,15.5227295 C94.5752213,15.2846148 94.4627623,15.2157623 94.2321066,15.2163361 C92.4281721,15.2226475 90.6248115,15.2232213 88.820877,15.2146148 C88.5953852,15.2134672 88.5030082,15.2972377 88.4553852,15.5072377 C88.2138279,16.5733033 87.9607951,17.6359262 87.7129262,18.7002705 C87.6716148,18.8775656 87.6515328,19.056582 87.3956311,19.0554964 C86.2412049,19.0468279 85.0867787,19.0479754 83.9323525,19.043959 C83.8755492,19.043959 83.8181721,19.0210082 83.7028443,18.9963361 L83.7028443,18.9963361 Z M93.9107951,12.2912541 C93.1247295,9.00756557 92.3489918,5.76633607 91.5738279,2.52510656 C91.543418,2.52797541 91.5124344,2.53084426 91.4820246,2.53313934 C90.7154672,5.77379508 89.9494836,9.01502459 89.1743197,12.2912541 L93.9107951,12.2912541 Z" id="Fill-6" fill="#353944"></path>
                <path d="M160.10423,0.642680328 L163.931852,0.642680328 L163.931852,1.10513934 C163.931852,4.99989344 163.926115,8.89407377 163.934721,12.7882541 C163.93759,13.9667787 164.274393,15.0225164 165.247508,15.773582 C166.622262,16.8327623 168.640213,16.3605492 169.460705,14.7998934 C169.779721,14.193418 169.912262,13.5404672 169.911115,12.8542377 C169.907098,8.93595902 169.909393,5.01768033 169.909393,1.09882787 L169.909393,0.651860656 L173.767426,0.651860656 C173.774311,0.78554918 173.784066,0.902598361 173.784066,1.01907377 C173.785787,4.93735246 173.78177,8.85505738 173.786365,12.7739098 C173.788082,14.5830082 173.307836,16.223418 172.046115,17.5551393 C170.529639,19.155959 168.614967,19.756123 166.446115,19.6453852 C164.917016,19.5673525 163.54341,19.0825164 162.365459,18.0875984 C160.904066,16.8528443 160.120869,15.2554672 160.098492,13.3683361 C160.048,9.18669672 160.081279,5.00390984 160.081279,0.821122951 C160.081279,0.77407377 160.092754,0.72702459 160.10423,0.642680328" id="Fill-8" fill="#353944"></path>
                <polygon id="Fill-10" fill="#353944" points="79.0367705 7.01859016 79.0367705 19.0574426 75.117918 19.0574426 75.117918 3.92080328 75.1213607 3.92080328"></polygon>
                <path d="M70.433541,19.0482049 C69.6365738,19.0482049 68.9050164,19.0476311 68.173459,19.0482049 C67.7287869,19.0482049 67.2829672,19.0332869 66.8394426,19.0545164 C66.605918,19.0659918 66.5255902,18.9793525 66.4779672,18.7653361 C66.2404262,17.6866475 65.981082,16.6125492 65.7458361,15.5332869 C65.6907541,15.2785328 65.590918,15.1832869 65.3178033,15.1861557 C63.525918,15.1987787 61.7346066,15.1987787 59.9421475,15.1861557 C59.6701803,15.1844344 59.5697705,15.2773852 59.5118197,15.5332869 C59.2737049,16.5993525 59.0200984,17.663123 58.7538689,18.7223033 C58.7257541,18.8359098 58.5777213,19.0011557 58.483623,19.002877 C57.3050984,19.0206639 56.1265738,19.0137787 54.9480492,19.0109098 C54.915918,19.0109098 54.8820656,18.9896803 54.8218197,18.9690246 C55.041,18.0825492 55.2567377,17.1989426 55.4787869,16.3159098 C56.7445246,11.2736148 58.0096885,6.23131967 59.2800164,1.19017213 C59.4269016,0.60607377 59.3115738,0.680090164 59.933541,0.678368852 C61.761,0.67492623 63.5896066,0.688122951 65.4176393,0.666816688 C65.7647705,0.66345082 65.8898525,0.775336066 65.9696066,1.09951639 C66.9754262,5.18017213 67.9921475,9.25795902 69.0111639,13.3351721 C69.4512459,15.0926311 69.9039508,16.8466475 70.3480492,18.6035328 C70.3801803,18.728041 70.3968197,18.8559918 70.433541,19.0482049 L70.433541,19.0482049 Z M65.0372295,12.3356639 C64.2362459,8.9859918 63.4427213,5.66959836 62.6491967,2.35263115 C62.6279672,2.35148361 62.6061639,2.35090984 62.5855082,2.34918852 C61.8000164,5.66787705 61.0139508,8.98713934 60.2221475,12.3356639 L65.0372295,12.3356639 Z" id="Fill-12" fill="#353944"></path>
                <path d="M128.004467,13.3278279 C129.190451,13.0954508 130.326516,12.8739754 131.488402,12.6467623 C131.55209,13.4810246 131.712172,14.2481557 132.117828,14.9504508 C132.964713,16.4147131 134.708975,17.0355328 136.280533,16.4204508 C137.455041,15.9614344 138.095369,14.5631557 137.65127,13.3897951 C137.375287,12.6611066 136.755041,12.2795492 136.077992,12.0161885 C135.142746,11.652418 134.181107,11.3580738 133.237254,11.0143852 C131.879713,10.5203689 130.580697,9.94086066 129.6225,8.78241803 C129.030369,8.06635246 128.7125,7.25561475 128.635041,6.35364754 C128.438238,4.07061475 129.173811,2.19209016 131.128074,0.889631148 C131.847008,0.410532787 132.66291,0.125368852 133.517254,0.051352459 C134.766926,-0.0565163934 136.011434,-0.0289754098 137.198566,0.486270492 C139.078811,1.29987705 140.175287,2.71938525 140.528156,4.72413934 C140.579795,5.01733607 140.588402,5.3179918 140.619959,5.64618852 C139.482746,5.88487705 138.376516,6.11668033 137.293238,6.34389344 C137.168156,5.78331967 137.104467,5.24282787 136.925451,4.74479508 C136.493975,3.55077869 135.493893,2.80430328 134.152992,3.07397541 C133.369795,3.23118852 132.647418,3.97135246 132.468975,4.85610656 C132.293975,5.72020492 132.60668,6.61930328 133.32791,7.01922131 C133.981434,7.38241803 134.684877,7.66184426 135.383156,7.93668033 C136.492828,8.37446721 137.651844,8.70266393 138.72709,9.21045082 C140.651516,10.1204508 141.56209,11.7189754 141.53168,13.8396311 C141.496107,16.3636475 140.160369,18.3276639 137.770041,19.1596311 C135.206434,20.052418 132.703074,19.8917623 130.44873,18.2410246 C128.820943,17.0487295 128.104303,15.3561066 128.004467,13.3278279" id="Fill-14" fill="#353944"></path>
                <polygon id="Fill-16" fill="#353944" points="156.163516 18.9985738 145.547041 18.9985738 145.547041 0.635622951 155.894418 0.635622951 155.894418 3.78218033 149.281713 3.78218033 149.281713 8.17783607 154.866795 8.17783607 154.866795 10.9916066 149.27368 10.9916066 149.27368 15.8284918 156.163516 15.8284918"></polygon>
                <path d="M119.623746,8.87691803 C119.95768,7.98413115 120.269238,7.15732787 120.577352,6.32995082 C121.249811,4.51740984 121.92227,2.70601639 122.588418,0.891754098 C122.651533,0.720770492 122.709484,0.603147541 122.930385,0.604868852 C124.156533,0.615196721 125.383828,0.610606557 126.609975,0.612901639 C126.656451,0.612901639 126.702352,0.626672131 126.806779,0.644459016 C126.626041,1.06790164 126.457926,1.4712623 126.282352,1.8717541 C124.750385,5.36831148 123.214402,8.86314754 121.68932,12.3625738 C121.606697,12.5524918 121.57973,12.7802787 121.579156,12.9897049 C121.568828,14.889459 121.570549,16.7886393 121.569402,18.6883934 C121.568828,18.794541 121.569402,18.9001148 121.569402,19.024623 C121.456369,19.0349508 121.376615,19.0488739 121.296287,19.0488739 C120.250303,19.0492951 119.20432,19.0481475 118.157762,19.047 C117.663172,19.0464262 117.660303,19.0464262 117.660303,18.5323279 C117.659156,16.6933934 117.668336,14.8538852 117.651697,13.014377 C117.649975,12.7257705 117.584566,12.4165082 117.467516,12.1525738 C116.115139,9.08863934 114.746697,6.03101639 113.382844,2.97167213 C113.0885,2.31413115 112.791861,1.65831148 112.498664,1.00019672 C112.451041,0.894622951 112.413172,0.784459016 112.357516,0.641016393 C112.495795,0.628393443 112.5985,0.611754098 112.701779,0.611180328 C113.819484,0.609459016 114.937762,0.618639344 116.056615,0.603626501 C116.306205,0.600278689 116.417516,0.690360656 116.503008,0.911262295 C117.48932,3.46396721 118.483664,6.01437705 119.476861,8.56421311 C119.510713,8.64970492 119.55432,8.73060656 119.623746,8.87691803" id="Fill-18" fill="#353944"></path>
                <path d="M102.726664,0.630631148 L106.608221,0.630631148 C106.615107,0.778663934 106.626582,0.916942623 106.626582,1.05522131 C106.62773,5.75554918 106.62773,10.4553033 106.626582,15.1556311 C106.626582,15.6398934 106.626008,15.6387459 107.118877,15.6387459 C108.802893,15.6375984 110.485762,15.6439098 112.169779,15.6324344 C112.484779,15.6301393 112.616172,15.7041557 112.606418,16.0518607 C112.582893,16.9291557 112.590926,17.8075984 112.604697,18.6843197 C112.608713,18.9580082 112.543303,19.0555492 112.243795,19.0538502 C109.176992,19.0423525 106.111336,19.0463689 103.045107,19.0521066 C102.812156,19.0521066 102.699697,19.0136639 102.699697,18.7399754 C102.706008,12.7779262 102.704861,6.81530328 102.704861,0.853254098 C102.704861,0.794155738 102.715762,0.735057377 102.726664,0.630631148" id="Fill-20" fill="#353944"></path>
                <path d="M29.4683361,9.27052459 C29.4683361,9.74847541 29.4815328,10.1902787 29.4539918,10.6297869 C29.4499754,10.696918 29.2548934,10.8030656 29.1470246,10.8047869 C28.3294016,10.8202787 27.5117787,10.8260164 26.6947295,10.809377 C26.4032541,10.8024918 26.3223525,10.8983115 26.3338279,11.1800328 C26.3539098,11.704459 26.3395656,12.2306066 26.3395656,12.8055246 L28.2444836,12.8055246 C28.3770246,12.8055246 28.5101393,12.8141311 28.6415328,12.802082 C28.8974344,12.7791311 29.0230902,12.8640492 28.9989918,13.1440492 C28.9789098,13.3827377 28.9812049,13.6254426 28.9972705,13.8641311 C29.0139098,14.1183115 28.9146475,14.1980656 28.6639098,14.1940492 C27.9082541,14.1814262 27.1520246,14.189459 26.3676803,14.189459 L26.3676803,16.401918 L27.0877623,16.401918 C27.808418,16.401918 28.5307951,16.4110984 29.2514508,16.3967541 C29.5216967,16.3915902 29.6135,16.4839672 29.5951393,16.7501967 C29.5750574,17.0376557 29.5802213,17.3274098 29.5922705,17.6154426 C29.6020246,17.8374918 29.5394836,17.9442131 29.2927623,17.9425123 C27.8021066,17.9356066 26.3120246,17.9333115 24.8207951,17.9425123 C24.4966148,17.9447869 24.5264508,17.7439672 24.5264508,17.5351148 C24.5275984,15.0707705 24.5270246,12.6075738 24.5275984,10.1438033 C24.5275984,9.26937705 24.5287459,9.26937705 25.3865328,9.26992252 C26.6006311,9.27052459 27.8153033,9.27052459 29.0294016,9.27052459 L29.4683361,9.27052459" id="Fill-22" fill="#353944"></path>
                <path d="M20.1149016,16.319123 C20.9726885,16.319123 21.7644918,16.3300246 22.5557213,16.3133852 C22.8242459,16.3070738 22.9235082,16.3862541 22.9103115,16.6559262 C22.8948197,16.9795328 22.9022787,17.3048607 22.911459,17.629041 C22.916623,17.8327295 22.8598197,17.9417459 22.6297377,17.9411721 C21.259,17.9354344 19.8876885,17.9342869 18.5169508,17.9434738 C18.2507213,17.9446148 18.2346557,17.796582 18.2358033,17.5974836 C18.2380984,16.6473197 18.236377,15.6977295 18.236377,14.7481393 C18.236377,13.0537951 18.2444098,11.3583033 18.2294918,9.66395902 C18.226623,9.34322131 18.3207213,9.23994262 18.6374426,9.26346721 C18.9960492,9.28928689 19.3603934,9.29215574 19.719,9.26404098 C20.0471967,9.23764754 20.124082,9.36617213 20.1229344,9.67313934 C20.1108852,11.6687131 20.1149016,13.6642869 20.1149016,15.6592869 L20.1149016,16.319123" id="Fill-24" fill="#353944"></path>
                <mask id="mask-2" fill="white">
                    <use xlink:href="#path-1"></use>
                </mask>
                <g id="Clip-31"></g>
                <polygon id="Fill-1" fill="#353944" mask="url(#mask-2)" points="83.169123 0.624778689 83.169123 3.89354918 79.0362541 3.92109016 75.121418 3.92109016 71.0218279 0.675844262"></polygon>
                <path d="M15.8142704,32.3118852 C15.182316,32.3118852 14.6337332,32.1716409 14.1685218,31.8911523 C13.7033105,31.6106637 13.3425097,31.215049 13.0861195,30.7043081 C12.8297293,30.1935672 12.7015341,29.5941361 12.7015341,28.906015 C12.7015341,28.1951133 12.8280505,27.5806051 13.0810833,27.0624904 C13.3341161,26.5443756 13.6909005,26.145074 14.1514365,25.8645854 C14.6119725,25.5840968 15.1555192,25.4438525 15.7820765,25.4438525 C16.4246995,25.4438525 16.9729372,25.5911254 17.4267896,25.8856714 C17.8806421,26.1802174 18.2240437,26.6026133 18.4569946,27.1528592 C18.6899454,27.7031051 18.7950619,28.3611034 18.7723442,29.1268539 L17.8706325,29.1268539 L17.8706325,28.8135752 C17.8545669,27.9688147 17.6728251,27.3312122 17.3254071,26.9007678 C16.9779891,26.4703234 16.4715783,26.2551012 15.8061749,26.2551012 C15.1060046,26.2551012 14.5701612,26.4823726 14.1986448,26.9369153 C13.8271284,27.3914581 13.6413702,28.0384426 13.6413702,28.8778689 C13.6413702,29.698531 13.8271284,30.3347999 14.1986448,30.7866755 C14.5701612,31.2385512 15.0979718,31.464489 15.7820765,31.464489 C16.2479782,31.464489 16.6543085,31.3567053 17.0010676,31.1411379 C17.3478267,30.9255706 17.6216161,30.615618 17.8224358,30.2112801 L18.6497815,30.5286066 C18.3914144,31.0962359 18.0122104,31.5353564 17.5121694,31.8459679 C17.0121284,32.1565795 16.4461621,32.3118852 15.8142704,32.3118852 Z M13.3280915,29.1268539 L13.3280915,28.3838525 L18.3003552,28.3838525 L18.3003552,29.1268539 L13.3280915,29.1268539 Z" id="Shape" fill="#353944" fill-rule="nonzero" mask="url(#mask-2)"></path>
                <polygon id="Path" fill="#353944" fill-rule="nonzero" mask="url(#mask-2)" points="22.6380829 32.1311475 22.6380829 23.275 23.5216267 23.275 23.5216267 32.1311475"></polygon>
                <path d="M25.3290435,25.9860656 L25.3832648,25.5462705 C25.5439206,25.5583197 25.660396,25.5261885 25.732691,25.449877 C25.8049861,25.3735656 25.8491665,25.2711475 25.865232,25.142623 C25.8812976,25.0140984 25.885314,24.8755328 25.8772812,24.7269262 L25.3290435,24.7269262 L25.3290435,23.4557377 L26.3592484,23.4557377 L26.3592484,24.9679098 C26.3592484,25.337418 26.2658673,25.6145492 26.079105,25.7993033 C25.8923427,25.9840574 25.6423222,26.0463115 25.3290435,25.9860656 Z" id="Path" fill="#353944" fill-rule="nonzero" mask="url(#mask-2)"></path>
                <path d="M28.1204063,24.391526 L28.1204063,23.3954918 L29.1204063,23.3954918 L29.1204063,24.391526 L28.1204063,24.391526 Z M28.1204063,32.1311475 L28.1204063,25.6245902 L29.1204063,25.6245902 L29.1204063,32.1311475 L28.1204063,32.1311475 Z" id="Shape" fill="#353944" fill-rule="nonzero" mask="url(#mask-2)"></path>
                <path d="M35.5105472,32.1311475 L35.5105472,28.8096215 C35.5105472,28.449464 35.4764078,28.1177664 35.4081292,27.8145287 C35.3398505,27.511291 35.2300743,27.2465385 35.0788006,27.0202712 C34.9275269,26.7940039 34.7324023,26.6186162 34.4934269,26.494108 C34.2544515,26.3695998 33.9642671,26.3073457 33.6228737,26.3073457 C33.3109128,26.3073457 33.0350996,26.360908 32.7954338,26.4680328 C32.5557681,26.5751575 32.3549484,26.7301338 32.1929748,26.9329617 C32.0310012,27.1357896 31.9081717,27.3824526 31.8244864,27.6729508 C31.7408011,27.963449 31.6989584,28.2927933 31.6989584,28.6609836 L31.0724011,28.5204412 C31.0724011,27.8537199 31.1888765,27.293433 31.4218273,26.8395806 C31.6547781,26.3857281 31.9757601,26.0429854 32.3847733,25.8113525 C32.7937865,25.5797195 33.264034,25.463903 33.7955158,25.463903 C34.185106,25.463903 34.5251659,25.52349 34.8156954,25.6426639 C35.106225,25.7618379 35.3529038,25.9238429 35.5557316,26.1286789 C35.7585595,26.333515 35.9222275,26.5681288 36.0467357,26.8325205 C36.1712439,27.0969121 36.2616128,27.376381 36.3178423,27.6709269 C36.3740718,27.9654729 36.4021865,28.2593443 36.4021865,28.552541 L36.4021865,32.1311475 L35.5105472,32.1311475 Z M30.8073191,32.1311475 L30.8073191,25.6245902 L31.6066128,25.6245902 L31.6066128,27.2271311 L31.6989584,27.2271311 L31.6989584,32.1311475 L30.8073191,32.1311475 Z" id="Shape" fill="#353944" fill-rule="nonzero" mask="url(#mask-2)"></path>
                <path d="M42.6677449,32.1311475 L42.6677449,28.8096215 C42.6677449,28.449464 42.6336055,28.1177664 42.5653268,27.8145287 C42.4970481,27.511291 42.387272,27.2465385 42.2359983,27.0202712 C42.0847246,26.7940039 41.8896,26.6186162 41.6506246,26.494108 C41.4116492,26.3695998 41.1214648,26.3073457 40.7800713,26.3073457 C40.4681105,26.3073457 40.1922972,26.360908 39.9526315,26.4680328 C39.7129658,26.5751575 39.5121461,26.7301338 39.3501725,26.9329617 C39.1881989,27.1357896 39.0653694,27.3824526 38.9816841,27.6729508 C38.8979988,27.963449 38.8561561,28.2927933 38.8561561,28.6609836 L38.2295987,28.5204412 C38.2295987,27.8537199 38.3460741,27.293433 38.579025,26.8395806 C38.8119758,26.3857281 39.1329578,26.0429854 39.541971,25.8113525 C39.9509842,25.5797195 40.4212317,25.463903 40.9527135,25.463903 C41.3423036,25.463903 41.6823635,25.52349 41.9728931,25.6426639 C42.2634227,25.7618379 42.5101014,25.9238429 42.7129293,26.1286789 C42.9157572,26.333515 43.0794252,26.5681288 43.2039334,26.8325205 C43.3284416,27.0969121 43.4188104,27.376381 43.4750399,27.6709269 C43.5312695,27.9654729 43.5593842,28.2593443 43.5593842,28.552541 L43.5593842,32.1311475 L42.6677449,32.1311475 Z M37.9645168,32.1311475 L37.9645168,25.6245902 L38.7638104,25.6245902 L38.7638104,27.2271311 L38.8561561,27.2271311 L38.8561561,32.1311475 L37.9645168,32.1311475 Z" id="Shape" fill="#353944" fill-rule="nonzero" mask="url(#mask-2)"></path>
                <path d="M47.8448292,32.3118852 C47.1981898,32.3118852 46.6452768,32.1652869 46.1860901,31.8720902 C45.7269033,31.5788934 45.3751394,31.1735672 45.1307984,30.6561114 C44.8864573,30.1386555 44.7642868,29.5432409 44.7642868,28.8698674 C44.7642868,28.1883984 44.888795,27.5902853 45.1378114,27.075528 C45.3868278,26.5607707 45.741604,26.1601354 46.20214,25.8736222 C46.6626759,25.5871091 47.210239,25.4438525 47.8448292,25.4438525 C48.494167,25.4438525 49.0487745,25.5897762 49.5086516,25.8816237 C49.9685286,26.1734711 50.3202925,26.5767892 50.5639432,27.0915779 C50.807594,27.6063665 50.9294194,28.1991297 50.9294194,28.8698674 C50.9294194,29.5526543 50.8065899,30.1521011 50.5609309,30.6682076 C50.315272,31.1843142 49.9618294,31.5872871 49.5006031,31.8771263 C49.0393768,32.1669656 48.4874521,32.3118852 47.8448292,32.3118852 Z M47.8448292,31.464489 C48.5664621,31.464489 49.1043294,31.2238348 49.4584309,30.7425266 C49.8125325,30.2612183 49.9895833,29.6369986 49.9895833,28.8698674 C49.9895833,28.0852901 49.8111989,27.459376 49.4544302,26.9921251 C49.0976615,26.5248742 48.5611279,26.2912487 47.8448292,26.2912487 C47.3588456,26.2912487 46.9578809,26.4010406 46.641935,26.6206244 C46.3259892,26.8402081 46.0907007,27.1434615 45.9360696,27.5303845 C45.7814384,27.9173076 45.7041229,28.3638019 45.7041229,28.8698674 C45.7041229,29.6530642 45.88519,30.2813003 46.2473244,30.7545758 C46.6094587,31.2278512 47.1419603,31.464489 47.8448292,31.464489 Z" id="Shape" fill="#353944" fill-rule="nonzero" mask="url(#mask-2)"></path>
                <polygon id="Path" fill="#353944" fill-rule="nonzero" mask="url(#mask-2)" points="54.0140279 32.1311475 51.6523886 25.6245902 52.5520293 25.6245902 54.4718968 30.9744262 56.3836687 25.6245902 57.291405 25.6245902 54.9297656 32.1311475"></polygon>
                <path d="M60.2393843,32.3118852 C59.7467485,32.3118852 59.3354134,32.2231951 59.0053788,32.0458149 C58.6753442,31.8684346 58.4276614,31.6334756 58.2623303,31.3409378 C58.0969992,31.0484 58.0143337,30.7294262 58.0143337,30.3840164 C58.0143337,30.0292559 58.0852952,29.7266928 58.2272183,29.4763272 C58.3691413,29.2259615 58.5642658,29.0207803 58.8125919,28.8607835 C59.060918,28.7007867 59.3464271,28.5779572 59.6691192,28.4922951 C60.0010992,28.4119672 60.3665753,28.3410057 60.7655475,28.2794105 C61.1645197,28.2178154 61.5561181,28.1632646 61.9403426,28.1157582 C62.3245671,28.0682518 62.6612695,28.0237263 62.9504499,27.9821817 L62.6332175,28.171015 C62.6465846,27.5310278 62.5227353,27.0557284 62.2616698,26.7451169 C62.0006042,26.4345053 61.5460928,26.2791995 60.8981356,26.2791995 C60.4536338,26.2791995 60.0774107,26.3796251 59.7694663,26.5804761 C59.4615218,26.7813272 59.2459859,27.0986379 59.1228583,27.5324084 L58.2593651,27.2793756 C58.4106074,26.6983165 58.7111466,26.2471311 59.1609827,25.9258197 C59.6108187,25.6045082 60.195204,25.4438525 60.9141384,25.4438525 C61.5072467,25.4438525 62.0119788,25.5549779 62.4283344,25.7772288 C62.8446901,25.9994797 63.1392204,26.3221247 63.3119253,26.7451639 C63.3922532,26.9326165 63.4444663,27.1428183 63.4685646,27.3757691 C63.492663,27.6087199 63.5047122,27.847005 63.5047122,28.0906244 L63.5047122,32.1311475 L62.713514,32.1311475 L62.713514,30.4965068 L62.9424485,30.5968539 C62.7215468,31.1551326 62.3784747,31.5805408 61.913232,31.8730786 C61.4479893,32.1656164 60.89004,32.3118852 60.2393843,32.3118852 Z M60.3398255,31.5447855 C60.753514,31.5447855 61.11466,31.4708117 61.4232633,31.322864 C61.7318667,31.1749164 61.9808831,30.9717434 62.1703125,30.713345 C62.3597419,30.4549465 62.4819125,30.1617655 62.5368241,29.8338019 C62.5863387,29.6249494 62.6134337,29.3956698 62.618109,29.1459631 C62.6227843,28.8962564 62.625122,28.7078311 62.625122,28.5806871 L62.9624991,28.757377 C62.6586338,28.797541 62.3313134,28.8380344 61.9805379,28.8788573 C61.6297624,28.9196801 61.2843526,28.9655392 60.9443084,29.0164344 C60.6042642,29.0673297 60.2983437,29.1295838 60.0265468,29.2031967 C59.8417927,29.2567277 59.6633927,29.3306858 59.4913467,29.4250711 C59.3193007,29.5194563 59.1780523,29.6443097 59.0676015,29.7996311 C58.9571507,29.9549526 58.9019253,30.1497477 58.9019253,30.3840164 C58.9019253,30.5727869 58.9491179,30.7558623 59.0435032,30.9332425 C59.1378884,31.1106228 59.2901819,31.2568916 59.5003836,31.3720492 C59.7105853,31.4872067 59.9903993,31.5447855 60.3398255,31.5447855 Z" id="Shape" fill="#353944" fill-rule="nonzero" mask="url(#mask-2)"></path>
                <path d="M68.613586,32.1311475 C68.2467763,32.207459 67.885646,32.2379114 67.5301952,32.2225048 C67.1747444,32.2070982 66.8574493,32.1307867 66.57831,31.9935704 C66.2991706,31.8563541 66.0886237,31.6438147 65.9466693,31.3559522 C65.828876,31.1149686 65.7646294,30.8703138 65.7539295,30.6219877 C65.7432296,30.3736616 65.7378796,30.0908511 65.7378796,29.773556 L65.7378796,23.8172131 L66.6214234,23.8172131 L66.6214234,29.7413621 C66.6214234,30.0131589 66.6244357,30.2404303 66.6304603,30.4231762 C66.6364849,30.6059221 66.6776529,30.7682409 66.7539644,30.9101326 C66.8985546,31.1792937 67.1281636,31.3393062 67.4427916,31.39017 C67.7574195,31.4410339 68.1476843,31.4296593 68.613586,31.3560464 L68.613586,32.1311475 Z M64.3481761,26.3836885 L64.3481761,25.6245902 L68.613586,25.6245902 L68.613586,26.3836885 L64.3481761,26.3836885 Z" id="Shape" fill="#353944" fill-rule="nonzero" mask="url(#mask-2)"></path>
                <path d="M70.0193077,24.391526 L70.0193077,23.3954918 L71.0193077,23.3954918 L71.0193077,24.391526 L70.0193077,24.391526 Z M70.0193077,32.1311475 L70.0193077,25.6245902 L71.0193077,25.6245902 L71.0193077,32.1311475 L70.0193077,32.1311475 Z" id="Shape" fill="#353944" fill-rule="nonzero" mask="url(#mask-2)"></path>
                <path d="M75.4293353,32.3118852 C74.7826959,32.3118852 74.2297829,32.1652869 73.7705962,31.8720902 C73.3114094,31.5788934 72.9596455,31.1735672 72.7153045,30.6561114 C72.4709634,30.1386555 72.3487929,29.5432409 72.3487929,28.8698674 C72.3487929,28.1883984 72.4733011,27.5902853 72.7223175,27.075528 C72.9713339,26.5607707 73.3261101,26.1601354 73.786646,25.8736222 C74.247182,25.5871091 74.7947451,25.4438525 75.4293353,25.4438525 C76.0786731,25.4438525 76.6332806,25.5897762 77.0931576,25.8816237 C77.5530347,26.1734711 77.9047986,26.5767892 78.1484493,27.0915779 C78.3921001,27.6063665 78.5139254,28.1991297 78.5139254,28.8698674 C78.5139254,29.5526543 78.391096,30.1521011 78.145437,30.6682076 C77.8997781,31.1843142 77.5463355,31.5872871 77.0851092,31.8771263 C76.6238828,32.1669656 76.0719582,32.3118852 75.4293353,32.3118852 Z M75.4293353,31.464489 C76.1509682,31.464489 76.6888355,31.2238348 77.042937,30.7425266 C77.3970386,30.2612183 77.5740894,29.6369986 77.5740894,28.8698674 C77.5740894,28.0852901 77.395705,27.459376 77.0389363,26.9921251 C76.6821676,26.5248742 76.1456339,26.2912487 75.4293353,26.2912487 C74.9433517,26.2912487 74.5423869,26.4010406 74.2264411,26.6206244 C73.9104953,26.8402081 73.6752068,27.1434615 73.5205757,27.5303845 C73.3659445,27.9173076 73.2886289,28.3638019 73.2886289,28.8698674 C73.2886289,29.6530642 73.4696961,30.2813003 73.8318305,30.7545758 C74.1939648,31.2278512 74.7264664,31.464489 75.4293353,31.464489 Z" id="Shape" fill="#353944" fill-rule="nonzero" mask="url(#mask-2)"></path>
                <path d="M84.538534,32.1311475 L84.538534,28.8096215 C84.538534,28.449464 84.5043946,28.1177664 84.436116,27.8145287 C84.3678373,27.511291 84.2580611,27.2465385 84.1067874,27.0202712 C83.9555137,26.7940039 83.7603891,26.6186162 83.5214137,26.494108 C83.2824383,26.3695998 82.9922539,26.3073457 82.6508604,26.3073457 C82.3388996,26.3073457 82.0630864,26.360908 81.8234206,26.4680328 C81.5837549,26.5751575 81.3829352,26.7301338 81.2209616,26.9329617 C81.058988,27.1357896 80.9361585,27.3824526 80.8524732,27.6729508 C80.7687879,27.963449 80.7269452,28.2927933 80.7269452,28.6609836 L80.1003879,28.5204412 C80.1003879,27.8537199 80.2168633,27.293433 80.4498141,26.8395806 C80.6827649,26.3857281 81.0037469,26.0429854 81.4127601,25.8113525 C81.8217733,25.5797195 82.2920208,25.463903 82.8235026,25.463903 C83.2130928,25.463903 83.5531526,25.52349 83.8436822,25.6426639 C84.1342118,25.7618379 84.3808905,25.9238429 84.5837184,26.1286789 C84.7865463,26.333515 84.9502143,26.5681288 85.0747225,26.8325205 C85.1992307,27.0969121 85.2895996,27.376381 85.3458291,27.6709269 C85.4020586,27.9654729 85.4301733,28.2593443 85.4301733,28.552541 L85.4301733,32.1311475 L84.538534,32.1311475 Z M79.8353059,32.1311475 L79.8353059,25.6245902 L80.6345996,25.6245902 L80.6345996,27.2271311 L80.7269452,27.2271311 L80.7269452,32.1311475 L79.8353059,32.1311475 Z" id="Shape" fill="#353944" fill-rule="nonzero" mask="url(#mask-2)"></path>
                <path d="M92.1576483,32.3118852 C91.5256939,32.3118852 90.977111,32.1716409 90.5118997,31.8911523 C90.0466884,31.6106637 89.6858876,31.215049 89.4294973,30.7043081 C89.1731071,30.1935672 89.044912,29.5941361 89.044912,28.906015 C89.044912,28.1951133 89.1714284,27.5806051 89.4244612,27.0624904 C89.6774939,26.5443756 90.0342783,26.145074 90.4948143,25.8645854 C90.9553503,25.5840968 91.498897,25.4438525 92.1254544,25.4438525 C92.7680773,25.4438525 93.316315,25.5911254 93.7701675,25.8856714 C94.2240199,26.1802174 94.5674216,26.6026133 94.8003724,27.1528592 C95.0333232,27.7031051 95.1384398,28.3611034 95.115722,29.1268539 L94.2140103,29.1268539 L94.2140103,28.8135752 C94.1979448,27.9688147 94.016203,27.3312122 93.6687849,26.9007678 C93.3213669,26.4703234 92.8149562,26.2551012 92.1495527,26.2551012 C91.4493824,26.2551012 90.913539,26.4823726 90.5420226,26.9369153 C90.1705062,27.3914581 89.984748,28.0384426 89.984748,28.8778689 C89.984748,29.698531 90.1705062,30.3347999 90.5420226,30.7866755 C90.913539,31.2385512 91.4413496,31.464489 92.1254544,31.464489 C92.591356,31.464489 92.9976864,31.3567053 93.3444455,31.1411379 C93.6912046,30.9255706 93.9649939,30.615618 94.1658136,30.2112801 L94.9931593,30.5286066 C94.7347922,31.0962359 94.3555882,31.5353564 93.8555472,31.8459679 C93.3555062,32.1565795 92.7895399,32.3118852 92.1576483,32.3118852 Z M89.6714694,29.1268539 L89.6714694,28.3838525 L94.6437331,28.3838525 L94.6437331,29.1268539 L89.6714694,29.1268539 Z" id="Shape" fill="#353944" fill-rule="nonzero" mask="url(#mask-2)"></path>
                <path d="M99.9935919,32.1311475 C99.6267822,32.207459 99.265652,32.2379114 98.9102012,32.2225048 C98.5547504,32.2070982 98.2374553,32.1307867 97.9583159,31.9935704 C97.6791766,31.8563541 97.4686297,31.6438147 97.3266753,31.3559522 C97.208882,31.1149686 97.1446354,30.8703138 97.1339355,30.6219877 C97.1232356,30.3736616 97.1178856,30.0908511 97.1178856,29.773556 L97.1178856,23.8172131 L98.0014294,23.8172131 L98.0014294,29.7413621 C98.0014294,30.0131589 98.0044417,30.2404303 98.0104663,30.4231762 C98.0164909,30.6059221 98.0576589,30.7682409 98.1339704,30.9101326 C98.2785605,31.1792937 98.5081696,31.3393062 98.8227975,31.39017 C99.1374255,31.4410339 99.5276903,31.4296593 99.9935919,31.3560464 L99.9935919,32.1311475 Z M95.7281821,26.3836885 L95.7281821,25.6245902 L99.9935919,25.6245902 L99.9935919,26.3836885 L95.7281821,26.3836885 Z" id="Shape" fill="#353944" fill-rule="nonzero" mask="url(#mask-2)"></path>
                <path d="M106.214938,32.3118852 C105.605827,32.3118852 105.086394,32.1605959 104.65664,31.8580171 C104.226886,31.5554383 103.897871,31.1444326 103.669596,30.625 C103.44132,30.1055674 103.327183,29.5205232 103.327183,28.8698674 C103.327183,28.2232281 103.440646,27.6411805 103.667572,27.1237247 C103.894498,26.6062689 104.22083,26.1969262 104.646568,25.8956967 C105.072306,25.5944672 105.583046,25.4438525 106.178791,25.4438525 C106.789282,25.4438525 107.303381,25.592459 107.721086,25.8896721 C108.138791,26.1868852 108.454752,26.5938746 108.66897,27.11064 C108.883188,27.6274055 108.990297,28.2138147 108.990297,28.8698674 C108.990297,29.5178247 108.883533,30.1015353 108.670006,30.6209993 C108.456478,31.1404633 108.143529,31.5521436 107.731158,31.8560403 C107.318787,32.1599369 106.813381,32.3118852 106.214938,32.3118852 Z M106.30333,31.4885873 C106.765215,31.4885873 107.147102,31.3754537 107.448991,31.1491864 C107.750879,30.9229191 107.975468,30.6123076 108.122756,30.2173518 C108.270045,29.8223959 108.343689,29.3732345 108.343689,28.8698674 C108.343689,28.3611034 108.269386,27.9105927 108.12078,27.5183354 C107.972173,27.1260781 107.748259,26.8194829 107.449038,26.5985499 C107.149816,26.3776169 106.774597,26.2671504 106.323381,26.2671504 C105.856161,26.2671504 105.470258,26.3819627 105.165671,26.6115875 C104.861084,26.8412122 104.635162,27.1524984 104.487905,27.545446 C104.340647,27.9383936 104.267019,28.3798674 104.267019,28.8698674 C104.267019,29.3638838 104.342655,29.8086994 104.493929,30.2043142 C104.645203,30.5999289 104.871454,30.9128781 105.172684,31.1431618 C105.473913,31.3734455 105.850796,31.4885873 106.30333,31.4885873 Z M108.343689,32.1311475 L108.343689,27.2311789 L108.25125,27.2311789 L108.25125,23.4557377 L109.138935,23.4557377 L109.138935,32.1311475 L108.343689,32.1311475 Z" id="Shape" fill="#353944" fill-rule="nonzero" mask="url(#mask-2)"></path>
                <path d="M8.67395445,32.3118852 C8.06484328,32.3118852 7.54541065,32.1605959 7.11565655,31.8580171 C6.68590245,31.5554383 6.35688766,31.1444326 6.12861217,30.625 C5.90033669,30.1055674 5.78619894,29.5205232 5.78619894,28.8698674 C5.78619894,28.2232281 5.89966206,27.6411805 6.12658829,27.1237247 C6.35351452,26.6062689 6.67984648,26.1969262 7.10558419,25.8956967 C7.53132189,25.5944672 8.0420628,25.4438525 8.63780691,25.4438525 C9.24829871,25.4438525 9.76239707,25.592459 10.180102,25.8896721 C10.5978069,26.1868852 10.9137684,26.5938746 11.1279865,27.11064 C11.3422046,27.6274055 11.4493137,28.2138147 11.4493137,28.8698674 C11.4493137,29.5178247 11.3425498,30.1015353 11.129022,30.6209993 C10.9154942,31.1404633 10.602545,31.5521436 10.1901744,31.8560403 C9.77780371,32.1599369 9.27239707,32.3118852 8.67395445,32.3118852 Z M8.76234648,31.4885873 C9.22423173,31.4885873 9.60611858,31.3754537 9.90800702,31.1491864 C10.2098955,30.9229191 10.434484,30.6123076 10.5817727,30.2173518 C10.7290614,29.8223959 10.8027057,29.3732345 10.8027057,28.8698674 C10.8027057,28.3611034 10.7284025,27.9105927 10.5797959,27.5183354 C10.4311893,27.1260781 10.2072754,26.8194829 9.90805409,26.5985499 C9.60883278,26.3776169 9.23361377,26.2671504 8.78239707,26.2671504 C8.31517755,26.2671504 7.92927431,26.3819627 7.62468735,26.6115875 C7.32010039,26.8412122 7.09417826,27.1524984 6.94692096,27.545446 C6.79966366,27.9383936 6.72603501,28.3798674 6.72603501,28.8698674 C6.72603501,29.3638838 6.80167186,29.8086994 6.95294555,30.2043142 C7.10421924,30.5999289 7.33047084,30.9128781 7.63170035,31.1431618 C7.93292986,31.3734455 8.3098119,31.4885873 8.76234648,31.4885873 Z M10.8027057,32.1311475 L10.8027057,27.2311789 L10.7102659,27.2311789 L10.7102659,23.4557377 L11.5979516,23.4557377 L11.5979516,32.1311475 L10.8027057,32.1311475 Z" id="Shape-Copy" fill="#353944" fill-rule="nonzero" mask="url(#mask-2)"></path>
                <path d="M113.577038,32.3118852 C112.945084,32.3118852 112.396501,32.1716409 111.931289,31.8911523 C111.466078,31.6106637 111.105277,31.215049 110.848887,30.7043081 C110.592497,30.1935672 110.464302,29.5941361 110.464302,28.906015 C110.464302,28.1951133 110.590818,27.5806051 110.843851,27.0624904 C111.096884,26.5443756 111.453668,26.145074 111.914204,25.8645854 C112.37474,25.5840968 112.918287,25.4438525 113.544844,25.4438525 C114.187467,25.4438525 114.735705,25.5911254 115.189557,25.8856714 C115.64341,26.1802174 115.986811,26.6026133 116.219762,27.1528592 C116.452713,27.7031051 116.557829,28.3611034 116.535112,29.1268539 L115.6334,29.1268539 L115.6334,28.8135752 C115.617334,27.9688147 115.435593,27.3312122 115.088175,26.9007678 C114.740757,26.4703234 114.234346,26.2551012 113.568942,26.2551012 C112.868772,26.2551012 112.332929,26.4823726 111.961412,26.9369153 C111.589896,27.3914581 111.404138,28.0384426 111.404138,28.8778689 C111.404138,29.698531 111.589896,30.3347999 111.961412,30.7866755 C112.332929,31.2385512 112.860739,31.464489 113.544844,31.464489 C114.010746,31.464489 114.417076,31.3567053 114.763835,31.1411379 C115.110594,30.9255706 115.384384,30.615618 115.585203,30.2112801 L116.412549,30.5286066 C116.154182,31.0962359 115.774978,31.5353564 115.274937,31.8459679 C114.774896,32.1565795 114.20893,32.3118852 113.577038,32.3118852 Z M111.090859,29.1268539 L111.090859,28.3838525 L116.063123,28.3838525 L116.063123,29.1268539 L111.090859,29.1268539 Z" id="Shape" fill="#353944" fill-rule="nonzero" mask="url(#mask-2)"></path>
                <polygon id="Path" fill="#353944" fill-rule="nonzero" mask="url(#mask-2)" points="120.40085 32.1311475 120.40085 23.275 121.284394 23.275 121.284394 32.1311475"></polygon>
                <path d="M123.091811,25.9860656 L123.146032,25.5462705 C123.306688,25.5583197 123.423164,25.5261885 123.495459,25.449877 C123.567754,25.3735656 123.611934,25.2711475 123.628,25.142623 C123.644065,25.0140984 123.648082,24.8755328 123.640049,24.7269262 L123.091811,24.7269262 L123.091811,23.4557377 L124.122016,23.4557377 L124.122016,24.9679098 C124.122016,25.337418 124.028635,25.6145492 123.841873,25.7993033 C123.65511,25.9840574 123.40509,26.0463115 123.091811,25.9860656 Z" id="Path" fill="#353944" fill-rule="nonzero" mask="url(#mask-2)"></path>
                <path d="M128.513943,32.3118852 C127.881989,32.3118852 127.333406,32.1716409 126.868194,31.8911523 C126.402983,31.6106637 126.042182,31.215049 125.785792,30.7043081 C125.529402,30.1935672 125.401207,29.5941361 125.401207,28.906015 C125.401207,28.1951133 125.527723,27.5806051 125.780756,27.0624904 C126.033789,26.5443756 126.390573,26.145074 126.851109,25.8645854 C127.311645,25.5840968 127.855192,25.4438525 128.481749,25.4438525 C129.124372,25.4438525 129.67261,25.5911254 130.126462,25.8856714 C130.580315,26.1802174 130.923716,26.6026133 131.156667,27.1528592 C131.389618,27.7031051 131.494734,28.3611034 131.472017,29.1268539 L130.570305,29.1268539 L130.570305,28.8135752 C130.554239,27.9688147 130.372498,27.3312122 130.02508,26.9007678 C129.677662,26.4703234 129.171251,26.2551012 128.505847,26.2551012 C127.805677,26.2551012 127.269834,26.4823726 126.898317,26.9369153 C126.526801,27.3914581 126.341043,28.0384426 126.341043,28.8778689 C126.341043,29.698531 126.526801,30.3347999 126.898317,30.7866755 C127.269834,31.2385512 127.797644,31.464489 128.481749,31.464489 C128.947651,31.464489 129.353981,31.3567053 129.70074,31.1411379 C130.047499,30.9255706 130.321289,30.615618 130.522108,30.2112801 L131.349454,30.5286066 C131.091087,31.0962359 130.711883,31.5353564 130.211842,31.8459679 C129.711801,32.1565795 129.145835,32.3118852 128.513943,32.3118852 Z M126.027764,29.1268539 L126.027764,28.3838525 L131.000028,28.3838525 L131.000028,29.1268539 L126.027764,29.1268539 Z" id="Shape" fill="#353944" fill-rule="nonzero" mask="url(#mask-2)"></path>
                <path d="M137.506608,32.1311475 L137.506608,28.8096215 C137.506608,28.449464 137.472469,28.1177664 137.40419,27.8145287 C137.335911,27.511291 137.226135,27.2465385 137.074861,27.0202712 C136.923588,26.7940039 136.728463,26.6186162 136.489488,26.494108 C136.250512,26.3695998 135.960328,26.3073457 135.618934,26.3073457 C135.306974,26.3073457 135.03116,26.360908 134.791495,26.4680328 C134.551829,26.5751575 134.351009,26.7301338 134.189036,26.9329617 C134.027062,27.1357896 133.904232,27.3824526 133.820547,27.6729508 C133.736862,27.963449 133.695019,28.2927933 133.695019,28.6609836 L133.068462,28.5204412 C133.068462,27.8537199 133.184937,27.293433 133.417888,26.8395806 C133.650839,26.3857281 133.971821,26.0429854 134.380834,25.8113525 C134.789847,25.5797195 135.260095,25.463903 135.791577,25.463903 C136.181167,25.463903 136.521227,25.52349 136.811756,25.6426639 C137.102286,25.7618379 137.348964,25.9238429 137.551792,26.1286789 C137.75462,26.333515 137.918288,26.5681288 138.042796,26.8325205 C138.167305,27.0969121 138.257673,27.376381 138.313903,27.6709269 C138.370132,27.9654729 138.398247,28.2593443 138.398247,28.552541 L138.398247,32.1311475 L137.506608,32.1311475 Z M132.80338,32.1311475 L132.80338,25.6245902 L133.602673,25.6245902 L133.602673,27.2271311 L133.695019,27.2271311 L133.695019,32.1311475 L132.80338,32.1311475 Z" id="Shape" fill="#353944" fill-rule="nonzero" mask="url(#mask-2)"></path>
                <path d="M143.507084,32.1311475 C143.140275,32.207459 142.779144,32.2379114 142.423693,32.2225048 C142.068243,32.2070982 141.750948,32.1307867 141.471808,31.9935704 C141.192669,31.8563541 140.982122,31.6438147 140.840168,31.3559522 C140.722374,31.1149686 140.658128,30.8703138 140.647428,30.6219877 C140.636728,30.3736616 140.631378,30.0908511 140.631378,29.773556 L140.631378,23.8172131 L141.514922,23.8172131 L141.514922,29.7413621 C141.514922,30.0131589 141.517934,30.2404303 141.523959,30.4231762 C141.529983,30.6059221 141.571151,30.7682409 141.647463,30.9101326 C141.792053,31.1792937 142.021662,31.3393062 142.33629,31.39017 C142.650918,31.4410339 143.041183,31.4296593 143.507084,31.3560464 L143.507084,32.1311475 Z M139.241674,26.3836885 L139.241674,25.6245902 L143.507084,25.6245902 L143.507084,26.3836885 L139.241674,26.3836885 Z" id="Shape" fill="#353944" fill-rule="nonzero" mask="url(#mask-2)"></path>
                <path d="M144.792314,32.1311475 L144.792314,25.6245902 L145.58756,25.6245902 L145.58756,27.1909836 L145.430921,26.9861475 C145.504534,26.7933607 145.599578,26.6153058 145.716053,26.4519829 C145.832529,26.28866 145.958386,26.1547855 146.093626,26.0503592 C146.263632,25.9030706 146.46042,25.7902664 146.683988,25.7119467 C146.907557,25.633627 147.133809,25.5874385 147.362743,25.5733811 C147.591678,25.5593238 147.801879,25.5763934 147.993348,25.6245902 L147.993348,26.4559836 C147.753683,26.3970556 147.493621,26.3833277 147.213164,26.4147999 C146.932707,26.4462721 146.673304,26.5577113 146.434956,26.7491176 C146.218071,26.9205046 146.056082,27.1230187 145.948988,27.3566598 C145.841895,27.590301 145.770275,27.8386584 145.734127,28.1017322 C145.69798,28.364806 145.679906,28.6261853 145.679906,28.8858703 L145.679906,32.1311475 L144.792314,32.1311475 Z" id="Path" fill="#353944" fill-rule="nonzero" mask="url(#mask-2)"></path>
                <path d="M151.889294,32.3118852 C151.25734,32.3118852 150.708757,32.1716409 150.243545,31.8911523 C149.778334,31.6106637 149.417533,31.215049 149.161143,30.7043081 C148.904753,30.1935672 148.776558,29.5941361 148.776558,28.906015 C148.776558,28.1951133 148.903074,27.5806051 149.156107,27.0624904 C149.40914,26.5443756 149.765924,26.145074 150.22646,25.8645854 C150.686996,25.5840968 151.230543,25.4438525 151.8571,25.4438525 C152.499723,25.4438525 153.047961,25.5911254 153.501813,25.8856714 C153.955666,26.1802174 154.299067,26.6026133 154.532018,27.1528592 C154.764969,27.7031051 154.870085,28.3611034 154.847368,29.1268539 L153.945656,29.1268539 L153.945656,28.8135752 C153.92959,27.9688147 153.747849,27.3312122 153.400431,26.9007678 C153.053013,26.4703234 152.546602,26.2551012 151.881198,26.2551012 C151.181028,26.2551012 150.645185,26.4823726 150.273668,26.9369153 C149.902152,27.3914581 149.716394,28.0384426 149.716394,28.8778689 C149.716394,29.698531 149.902152,30.3347999 150.273668,30.7866755 C150.645185,31.2385512 151.172995,31.464489 151.8571,31.464489 C152.323002,31.464489 152.729332,31.3567053 153.076091,31.1411379 C153.42285,30.9255706 153.69664,30.615618 153.897459,30.2112801 L154.724805,30.5286066 C154.466438,31.0962359 154.087234,31.5353564 153.587193,31.8459679 C153.087152,32.1565795 152.521186,32.3118852 151.889294,32.3118852 Z M149.403115,29.1268539 L149.403115,28.3838525 L154.375379,28.3838525 L154.375379,29.1268539 L149.403115,29.1268539 Z" id="Shape" fill="#353944" fill-rule="nonzero" mask="url(#mask-2)"></path>
                <path d="M159.102728,32.3118852 C158.504285,32.3118852 157.998879,32.1599369 157.586508,31.8560403 C157.174137,31.5521436 156.861188,31.1404633 156.64766,30.6209993 C156.434133,30.1015353 156.327369,29.5178247 156.327369,28.8698674 C156.327369,28.2138147 156.434478,27.6274055 156.648696,27.11064 C156.862914,26.5938746 157.178876,26.1868852 157.59658,25.8896721 C158.014285,25.592459 158.528384,25.4438525 159.138876,25.4438525 C159.73462,25.4438525 160.245361,25.5944672 160.671098,25.8956967 C161.096836,26.1969262 161.423168,26.6062689 161.650094,27.1237247 C161.87702,27.6411805 161.990483,28.2232281 161.990483,28.8698674 C161.990483,29.5205232 161.876346,30.1055674 161.64807,30.625 C161.419795,31.1444326 161.09078,31.5554383 160.661026,31.8580171 C160.231272,32.1605959 159.711839,32.3118852 159.102728,32.3118852 Z M156.178731,35.0229508 L156.178731,25.6245902 L156.973977,25.6245902 L156.973977,30.5245588 L157.066322,30.5245588 L157.066322,35.0229508 L156.178731,35.0229508 Z M159.014336,31.4885873 C159.466871,31.4885873 159.843753,31.3734455 160.144982,31.1431618 C160.446212,30.9128781 160.672463,30.5999289 160.823737,30.2043142 C160.975011,29.8086994 161.050647,29.3638838 161.050647,28.8698674 C161.050647,28.3798674 160.976344,27.9383936 160.827738,27.545446 C160.679131,27.1524984 160.453209,26.8412122 160.149971,26.6115875 C159.846733,26.3819627 159.461505,26.2671504 158.994285,26.2671504 C158.543069,26.2671504 158.16785,26.3776169 157.868628,26.5985499 C157.569407,26.8194829 157.345493,27.1260781 157.196887,27.5183354 C157.04828,27.9105927 156.973977,28.3611034 156.973977,28.8698674 C156.973977,29.3732345 157.047621,29.8223959 157.19491,30.2173518 C157.342198,30.6123076 157.566787,30.9229191 157.868675,31.1491864 C158.170564,31.3754537 158.552451,31.4885873 159.014336,31.4885873 Z" id="Shape" fill="#353944" fill-rule="nonzero" mask="url(#mask-2)"></path>
                <path d="M163.315882,32.1311475 L163.315882,25.6245902 L164.111127,25.6245902 L164.111127,27.1909836 L163.954488,26.9861475 C164.028101,26.7933607 164.123145,26.6153058 164.239621,26.4519829 C164.356096,26.28866 164.481954,26.1547855 164.617193,26.0503592 C164.787199,25.9030706 164.983987,25.7902664 165.207556,25.7119467 C165.431125,25.633627 165.657376,25.5874385 165.886311,25.5733811 C166.115245,25.5593238 166.325447,25.5763934 166.516916,25.6245902 L166.516916,26.4559836 C166.27725,26.3970556 166.017189,26.3833277 165.736731,26.4147999 C165.456274,26.4462721 165.196872,26.5577113 164.958524,26.7491176 C164.741638,26.9205046 164.579649,27.1230187 164.472556,27.3566598 C164.365462,27.590301 164.293842,27.8386584 164.257694,28.1017322 C164.221547,28.364806 164.203473,28.6261853 164.203473,28.8858703 L164.203473,32.1311475 L163.315882,32.1311475 Z" id="Path" fill="#353944" fill-rule="nonzero" mask="url(#mask-2)"></path>
                <path d="M170.412861,32.3118852 C169.780907,32.3118852 169.232324,32.1716409 168.767113,31.8911523 C168.301901,31.6106637 167.941101,31.215049 167.68471,30.7043081 C167.42832,30.1935672 167.300125,29.5941361 167.300125,28.906015 C167.300125,28.1951133 167.426641,27.5806051 167.679674,27.0624904 C167.932707,26.5443756 168.289491,26.145074 168.750027,25.8645854 C169.210563,25.5840968 169.75411,25.4438525 170.380667,25.4438525 C171.02329,25.4438525 171.571528,25.5911254 172.02538,25.8856714 C172.479233,26.1802174 172.822635,26.6026133 173.055585,27.1528592 C173.288536,27.7031051 173.393653,28.3611034 173.370935,29.1268539 L172.469223,29.1268539 L172.469223,28.8135752 C172.453158,27.9688147 172.271416,27.3312122 171.923998,26.9007678 C171.57658,26.4703234 171.070169,26.2551012 170.404766,26.2551012 C169.704595,26.2551012 169.168752,26.4823726 168.797236,26.9369153 C168.425719,27.3914581 168.239961,28.0384426 168.239961,28.8778689 C168.239961,29.698531 168.425719,30.3347999 168.797236,30.7866755 C169.168752,31.2385512 169.696563,31.464489 170.380667,31.464489 C170.846569,31.464489 171.252899,31.3567053 171.599658,31.1411379 C171.946418,30.9255706 172.220207,30.615618 172.421027,30.2112801 L173.248372,30.5286066 C172.990005,31.0962359 172.610801,31.5353564 172.11076,31.8459679 C171.610719,32.1565795 171.044753,32.3118852 170.412861,32.3118852 Z M167.926682,29.1268539 L167.926682,28.3838525 L172.898946,28.3838525 L172.898946,29.1268539 L167.926682,29.1268539 Z" id="Shape" fill="#353944" fill-rule="nonzero" mask="url(#mask-2)"></path>
                <path d="M179.405526,32.1311475 L179.405526,28.8096215 C179.405526,28.449464 179.371387,28.1177664 179.303108,27.8145287 C179.23483,27.511291 179.125053,27.2465385 178.97378,27.0202712 C178.822506,26.7940039 178.627381,26.6186162 178.388406,26.494108 C178.149431,26.3695998 177.859246,26.3073457 177.517853,26.3073457 C177.205892,26.3073457 176.930079,26.360908 176.690413,26.4680328 C176.450747,26.5751575 176.249927,26.7301338 176.087954,26.9329617 C175.92598,27.1357896 175.803151,27.3824526 175.719465,27.6729508 C175.63578,27.963449 175.593937,28.2927933 175.593937,28.6609836 L174.96738,28.5204412 C174.96738,27.8537199 175.083856,27.293433 175.316806,26.8395806 C175.549757,26.3857281 175.870739,26.0429854 176.279752,25.8113525 C176.688766,25.5797195 177.159013,25.463903 177.690495,25.463903 C178.080085,25.463903 178.420145,25.52349 178.710674,25.6426639 C179.001204,25.7618379 179.247883,25.9238429 179.450711,26.1286789 C179.653539,26.333515 179.817207,26.5681288 179.941715,26.8325205 C180.066223,27.0969121 180.156592,27.376381 180.212821,27.6709269 C180.269051,27.9654729 180.297166,28.2593443 180.297166,28.552541 L180.297166,32.1311475 L179.405526,32.1311475 Z M174.702298,32.1311475 L174.702298,25.6245902 L175.501592,25.6245902 L175.501592,27.2271311 L175.593937,27.2271311 L175.593937,32.1311475 L174.702298,32.1311475 Z" id="Shape" fill="#353944" fill-rule="nonzero" mask="url(#mask-2)"></path>
                <path d="M184.614804,32.3118852 C183.98285,32.3118852 183.434267,32.1716409 182.969056,31.8911523 C182.503845,31.6106637 182.143044,31.215049 181.886654,30.7043081 C181.630263,30.1935672 181.502068,29.5941361 181.502068,28.906015 C181.502068,28.1951133 181.628585,27.5806051 181.881617,27.0624904 C182.13465,26.5443756 182.491435,26.145074 182.951971,25.8645854 C183.412506,25.5840968 183.956053,25.4438525 184.582611,25.4438525 C185.225234,25.4438525 185.773471,25.5911254 186.227324,25.8856714 C186.681176,26.1802174 187.024578,26.6026133 187.257529,27.1528592 C187.490479,27.7031051 187.595596,28.3611034 187.572878,29.1268539 L186.671167,29.1268539 L186.671167,28.8135752 C186.655101,27.9688147 186.473359,27.3312122 186.125941,26.9007678 C185.778523,26.4703234 185.272112,26.2551012 184.606709,26.2551012 C183.906539,26.2551012 183.370695,26.4823726 182.999179,26.9369153 C182.627662,27.3914581 182.441904,28.0384426 182.441904,28.8778689 C182.441904,29.698531 182.627662,30.3347999 182.999179,30.7866755 C183.370695,31.2385512 183.898506,31.464489 184.582611,31.464489 C185.048512,31.464489 185.454843,31.3567053 185.801602,31.1411379 C186.148361,30.9255706 186.42215,30.615618 186.62297,30.2112801 L187.450315,30.5286066 C187.191948,31.0962359 186.812744,31.5353564 186.312703,31.8459679 C185.812662,32.1565795 185.246696,32.3118852 184.614804,32.3118852 Z M182.128626,29.1268539 L182.128626,28.3838525 L187.100889,28.3838525 L187.100889,29.1268539 L182.128626,29.1268539 Z" id="Shape" fill="#353944" fill-rule="nonzero" mask="url(#mask-2)"></path>
                <path d="M191.394468,32.2918347 C191.004878,32.2918347 190.664818,32.2322477 190.374288,32.1130738 C190.083759,31.9938998 189.83708,31.8318949 189.634252,31.6270588 C189.431424,31.4222227 189.267756,31.1876089 189.143248,30.9232172 C189.01874,30.6588256 188.928371,30.3793567 188.872142,30.0848108 C188.815912,29.7902648 188.787797,29.4963934 188.787797,29.2031967 L188.787797,25.6245902 L189.679437,25.6245902 L189.679437,28.9461162 C189.679437,29.3036379 189.713576,29.6346766 189.781855,29.9392322 C189.850133,30.2437878 189.95991,30.5091992 190.111183,30.7354665 C190.262457,30.9617338 190.457581,31.1371215 190.696557,31.2616297 C190.935532,31.3861379 191.225717,31.448392 191.56711,31.448392 C191.879071,31.448392 192.154869,31.3948297 192.394503,31.2877049 C192.634137,31.1805802 192.834957,31.0256039 192.996962,30.822776 C193.158967,30.6199481 193.281812,30.3729399 193.365497,30.0817514 C193.449183,29.7905629 193.491025,29.4615638 193.491025,29.0947541 L194.117583,29.2352965 C194.117583,29.9020178 194.001107,30.4623047 193.768157,30.9161571 C193.535206,31.3700096 193.214224,31.7127523 192.805211,31.9443852 C192.396197,32.1760182 191.92595,32.2918347 191.394468,32.2918347 Z M193.583371,32.1311475 L193.583371,30.5286066 L193.491025,30.5286066 L193.491025,25.6245902 L194.378617,25.6245902 L194.378617,32.1311475 L193.583371,32.1311475 Z" id="Shape" fill="#353944" fill-rule="nonzero" mask="url(#mask-2)"></path>
                <path d="M196.065487,32.1311475 L196.065487,25.6245902 L196.860733,25.6245902 L196.860733,27.1909836 L196.704093,26.9861475 C196.777706,26.7933607 196.87275,26.6153058 196.989226,26.4519829 C197.105701,26.28866 197.231559,26.1547855 197.366798,26.0503592 C197.536805,25.9030706 197.733592,25.7902664 197.957161,25.7119467 C198.18073,25.633627 198.406981,25.5874385 198.635916,25.5733811 C198.86485,25.5593238 199.075052,25.5763934 199.266521,25.6245902 L199.266521,26.4559836 C199.026855,26.3970556 198.766794,26.3833277 198.486337,26.4147999 C198.205879,26.4462721 197.946477,26.5577113 197.708129,26.7491176 C197.491244,26.9205046 197.329254,27.1230187 197.222161,27.3566598 C197.115068,27.590301 197.043447,27.8386584 197.0073,28.1017322 C196.971152,28.364806 196.953078,28.6261853 196.953078,28.8858703 L196.953078,32.1311475 L196.065487,32.1311475 Z" id="Path" fill="#353944" fill-rule="nonzero" mask="url(#mask-2)"></path>
                <path d="M200.531697,24.391526 L200.531697,23.3954918 L201.531697,23.3954918 L201.531697,24.391526 L200.531697,24.391526 Z M200.531697,32.1311475 L200.531697,25.6245902 L201.531697,25.6245902 L201.531697,32.1311475 L200.531697,32.1311475 Z" id="Shape" fill="#353944" fill-rule="nonzero" mask="url(#mask-2)"></path>
                <path d="M205.086233,32.3118852 C204.593597,32.3118852 204.182262,32.2231951 203.852228,32.0458149 C203.522193,31.8684346 203.27451,31.6334756 203.109179,31.3409378 C202.943848,31.0484 202.861183,30.7294262 202.861183,30.3840164 C202.861183,30.0292559 202.932144,29.7266928 203.074067,29.4763272 C203.21599,29.2259615 203.411115,29.0207803 203.659441,28.8607835 C203.907767,28.7007867 204.193276,28.5779572 204.515968,28.4922951 C204.847948,28.4119672 205.213424,28.3410057 205.612396,28.2794105 C206.011369,28.2178154 206.402967,28.1632646 206.787191,28.1157582 C207.171416,28.0682518 207.508118,28.0237263 207.797299,27.9821817 L207.480066,28.171015 C207.493433,27.5310278 207.369584,27.0557284 207.108519,26.7451169 C206.847453,26.4345053 206.392942,26.2791995 205.744984,26.2791995 C205.300483,26.2791995 204.92426,26.3796251 204.616315,26.5804761 C204.308371,26.7813272 204.092835,27.0986379 203.969707,27.5324084 L203.106214,27.2793756 C203.257456,26.6983165 203.557995,26.2471311 204.007831,25.9258197 C204.457668,25.6045082 205.042053,25.4438525 205.760987,25.4438525 C206.354096,25.4438525 206.858828,25.5549779 207.275183,25.7772288 C207.691539,25.9994797 207.986069,26.3221247 208.158774,26.7451639 C208.239102,26.9326165 208.291315,27.1428183 208.315413,27.3757691 C208.339512,27.6087199 208.351561,27.847005 208.351561,28.0906244 L208.351561,32.1311475 L207.560363,32.1311475 L207.560363,30.4965068 L207.789297,30.5968539 C207.568396,31.1551326 207.225323,31.5805408 206.760081,31.8730786 C206.294838,32.1656164 205.736889,32.3118852 205.086233,32.3118852 Z M205.186674,31.5447855 C205.600363,31.5447855 205.961509,31.4708117 206.270112,31.322864 C206.578716,31.1749164 206.827732,30.9717434 207.017161,30.713345 C207.206591,30.4549465 207.328761,30.1617655 207.383673,29.8338019 C207.433188,29.6249494 207.460283,29.3956698 207.464958,29.1459631 C207.469633,28.8962564 207.471971,28.7078311 207.471971,28.5806871 L207.809348,28.757377 C207.505483,28.797541 207.178162,28.8380344 206.827387,28.8788573 C206.476611,28.9196801 206.131201,28.9655392 205.791157,29.0164344 C205.451113,29.0673297 205.145193,29.1295838 204.873396,29.2031967 C204.688642,29.2567277 204.510242,29.3306858 204.338196,29.4250711 C204.16615,29.5194563 204.024901,29.6443097 203.91445,29.7996311 C203.804,29.9549526 203.748774,30.1497477 203.748774,30.3840164 C203.748774,30.5727869 203.795967,30.7558623 203.890352,30.9332425 C203.984737,31.1106228 204.137031,31.2568916 204.347232,31.3720492 C204.557434,31.4872067 204.837248,31.5447855 205.186674,31.5447855 Z" id="Shape" fill="#353944" fill-rule="nonzero" mask="url(#mask-2)"></path>
                <path d="M213.460435,32.1311475 C213.093625,32.207459 212.732495,32.2379114 212.377044,32.2225048 C212.021593,32.2070982 211.704298,32.1307867 211.425159,31.9935704 C211.146019,31.8563541 210.935473,31.6438147 210.793518,31.3559522 C210.675725,31.1149686 210.611478,30.8703138 210.600778,30.6219877 C210.590078,30.3736616 210.584728,30.0908511 210.584728,29.773556 L210.584728,23.8172131 L211.468272,23.8172131 L211.468272,29.7413621 C211.468272,30.0131589 211.471285,30.2404303 211.477309,30.4231762 C211.483334,30.6059221 211.524502,30.7682409 211.600813,30.9101326 C211.745403,31.1792937 211.975012,31.3393062 212.28964,31.39017 C212.604268,31.4410339 212.994533,31.4296593 213.460435,31.3560464 L213.460435,32.1311475 Z M209.195025,26.3836885 L209.195025,25.6245902 L213.460435,25.6245902 L213.460435,26.3836885 L209.195025,26.3836885 Z" id="Shape" fill="#353944" fill-rule="nonzero" mask="url(#mask-2)"></path>
            </g>
        </g>
    </g>
</svg>