<svg xmlns="http://www.w3.org/2000/svg" width="454" height="212" viewBox="0 0 227 106"><g><g><path fill="#73b1b4" d="M218.742 30.454c1.6 17.894-9.483 32.522-27.41 35.792 0 0-.868-10.106-.86-10.116l-2.043-22.833.058-.005z"/></g><g><path fill="#d3d3d2" d="M226.41 36.035c-1.62-17.891-15.469-30.25-33.692-30.267-.839.024-1.69.06-2.549.126l-28.043 2.525 2.992 33.133 13.625-1.217-1.282-17.05 16.73-1.205c6.89.032 12.457 3.597 15.142 9.194l-5.66.512-.01.056 15.078-1.388c1.39 15.534-6.815 28.567-20.768 33.888.255 2.995.636 7.404.636 7.404 17.925-3.27 29.401-17.818 27.8-35.711z"/></g><g><path fill="#ff8d73" d="M185.212.28l9.83 12.851c-2.475.577-4.984 1.738-8.127 3.463l7.127 5.522c.396.005 8.804.07 10.92 4.848l6.086-3.378c3.725 2.54 6.912 5.105 7.693 6.868l7.065 1.482C221.64 10.516 197.016-.543 185.212.28z"/></g><g><path fill="#1c809d" d="M188.41 33.328l15.12-1.453c.917 8.993-4.625 16.17-13.644 17.697z"/></g><g><path fill="#ff5c26" d="M218.742 30.454C217.122 12.563 203.434.296 185.212.279l1.47 16.313c9.164.043 16.032 6.276 16.849 15.286z"/></g><g><path fill="#90d212" d="M185.443.28l.284 3.164.637 7.077.55 6.072-15.676 1.29 1.181 16.878-14.578 1.302-1.506-16.69-1.487-16.443 17.382-1.565 10.664-.958a51.588 51.588 0 0 1 2.55-.128z"/></g><g><path d="M46.248 62.149l-.635-8.617 2.806-.206c2.67-.199 4.581 1.263 4.782 3.977.2 2.717-1.479 4.444-4.147 4.64zm-4.18 3.873l7.425-.548c5.207-.383 8.552-3.677 8.198-8.5-.357-4.827-4.15-7.592-9.354-7.208l-7.429.548z"/></g><g><path d="M72.966 60.292l.252 3.434-12.611.929-1.16-15.708 12.32-.91.253 3.434-7.921.585.197 2.648 6.977-.514.245 3.32-6.977.514.21 2.874z"/></g><g><path d="M74.485 62.21l1.217-3.383c1.458.817 3.48 1.3 5.3 1.167 1.838-.137 2.52-.706 2.462-1.47-.185-2.49-8.981-.015-9.413-5.85-.206-2.803 1.916-5.263 6.584-5.607 2.04-.15 4.186.165 5.799.948l-1.125 3.401c-1.562-.697-3.075-.99-4.443-.89-1.863.138-2.488.814-2.43 1.6.177 2.401 8.95-.05 9.38 5.738.202 2.738-1.915 5.241-6.584 5.585-2.58.192-5.19-.315-6.747-1.239z"/></g><g><path d="M88.824 54.678c-.354-4.78 3.056-8.438 8.038-8.806 2.895-.214 5.306.669 6.972 2.464l-2.639 2.767c-1.074-1.115-2.333-1.678-3.836-1.567-2.583.189-4.244 2.118-4.048 4.812.2 2.692 2.127 4.356 4.71 4.164 1.501-.111 2.665-.851 3.565-2.112l3.017 2.35c-1.385 2.02-3.643 3.247-6.536 3.46-4.984.367-8.89-2.752-9.243-7.532z"/></g><g><path d="M111.225 54.559l1.647-5.175 2.392 4.879zm7.04 5.845l4.624-.342-8.115-15.194-4.375.323-5.777 16.22 4.533-.335 1.008-3.143 6.643-.49z"/></g><g><path d="M130.16 47.252c1.84-.135 2.824.65 2.93 2.108.107 1.436-.75 2.358-2.59 2.493l-2.47.182-.338-4.6zm3.707 12.003l4.758-.352-3.754-4.688c1.884-1.086 2.879-2.873 2.709-5.185-.265-3.592-3.121-5.614-7.407-5.3l-7.181.532 1.157 15.709 4.443-.328-.308-4.174 2.425-.18z"/></g><g><path d="M142.979 46.33l-4.826.356-.26-3.523 14.071-1.04.263 3.525-4.805.354.9 12.185-4.443.33z"/></g><g><path d="M167.145 53.347l.252 3.434-12.611.93-1.159-15.709 12.32-.907.255 3.431-7.924.585.197 2.648 6.98-.514.245 3.32-6.98.514.211 2.874z"/></g><g><path d="M168.664 55.266l1.218-3.383c1.46.817 3.48 1.3 5.3 1.166 1.84-.136 2.52-.705 2.463-1.47-.185-2.49-8.98-.014-9.413-5.85-.206-2.802 1.914-5.262 6.582-5.604 2.042-.152 4.186.163 5.802.949l-1.128 3.397c-1.562-.696-3.073-.99-4.44-.89-1.865.139-2.49.815-2.433 1.6.177 2.402 8.954-.05 9.381 5.739.201 2.738-1.916 5.24-6.582 5.585-2.58.192-5.19-.315-6.75-1.24z"/></g><g><path d="M3.754 86.63l-.87-11.802 4.241-.313c3.883-.287 6.55 1.908 6.81 5.432.258 3.524-2.059 6.085-5.939 6.37zm-2.1 2.118l6.62-.487c5.051-.371 8.247-3.812 7.905-8.48-.345-4.667-4.014-7.602-9.065-7.228l-6.619.487z"/></g><g><path d="M27.615 70.207l-2.74.2-2.835 3.142 2.017-.148zm-7.18 10.344c.075-2.038 1.498-3.541 3.562-3.694 2.088-.153 3.694 1.15 4.067 3.13zm9.763.836c.007-.204.01-.475-.002-.655-.272-3.657-2.898-5.944-6.332-5.692-3.435.253-5.782 2.976-5.523 6.5.262 3.546 3.007 5.893 6.844 5.61 1.974-.146 3.563-.941 4.548-2.275L28.44 83.57c-.803 1.03-1.933 1.586-3.327 1.69-2.355.172-4.14-1.094-4.565-3.162z"/></g><g><path d="M43.04 73.739l-4.33 12.279-2.198.16-6.083-11.508 2.243-.167 4.788 9.237 3.47-9.846z"/></g><g><path d="M46.156 78.653c.075-2.037 1.498-3.54 3.562-3.693 2.09-.153 3.697 1.15 4.07 3.131zm9.764.837a7.908 7.908 0 0 0-.002-.655c-.27-3.657-2.899-5.947-6.333-5.692-3.434.252-5.782 2.976-5.522 6.5.262 3.545 3.007 5.893 6.844 5.61 1.976-.146 3.562-.939 4.55-2.276l-1.293-1.304c-.805 1.03-1.938 1.586-3.33 1.69-2.355.172-4.14-1.094-4.564-3.163z"/></g><g><path d="M58.111 67.843l2.153-.158 1.23 16.652-2.156.158z"/></g><g><path d="M74.251 77.416c.187 2.537-1.396 4.322-3.686 4.492-2.29.169-4.137-1.366-4.327-3.9-.186-2.537 1.422-4.302 3.711-4.47 2.289-.17 4.115 1.344 4.302 3.878zm-10.188.752c.259 3.545 3.073 5.888 6.643 5.624 3.567-.262 5.983-2.99 5.721-6.536-.262-3.546-3.049-5.867-6.616-5.605-3.57.265-6.01 2.971-5.748 6.517z"/></g><g><path d="M89.557 76.287c.19 2.537-1.416 4.324-3.708 4.494-2.265.167-4.116-1.368-4.302-3.903-.187-2.514 1.418-4.302 3.686-4.469 2.29-.167 4.14 1.365 4.324 3.878zm2.178-.16c-.267-3.636-2.983-5.872-6.463-5.617-1.749.131-3.226.917-4.094 2.311l-.138-1.884-2.064.15 1.197 16.25 2.154-.16-.453-6.149c1.081 1.205 2.612 1.75 4.295 1.623 3.478-.255 5.835-2.867 5.566-6.524z"/></g><g><path d="M104.865 75.159c.189 2.536-1.416 4.323-3.706 4.493-2.268.166-4.119-1.367-4.305-3.901-.184-2.516 1.42-4.303 3.687-4.47 2.289-.168 4.14 1.364 4.324 3.877zm2.178-.16c-.27-3.635-2.984-5.872-6.464-5.617-1.748.13-3.225.916-4.091 2.31l-.14-1.883-2.064.15 1.196 16.248 2.158-.16-.455-6.147c1.083 1.205 2.61 1.748 4.294 1.624 3.478-.255 5.835-2.868 5.566-6.525z"/></g><g><path d="M111.022 73.871c.076-2.038 1.499-3.541 3.563-3.694 2.088-.153 3.696 1.149 4.07 3.131zm9.764.836c.007-.204.01-.475-.002-.655-.27-3.657-2.898-5.947-6.332-5.692-3.435.252-5.782 2.976-5.523 6.5.262 3.546 3.007 5.893 6.844 5.609 1.977-.145 3.563-.941 4.548-2.277l-1.291-1.302c-.805 1.03-1.937 1.586-3.33 1.69-2.354.172-4.14-1.094-4.564-3.163z"/></g><g><path d="M143.448 71.412l.504 6.844-2.153.16-.488-6.6c-.172-2.332-1.378-3.395-3.33-3.25-2.156.158-3.468 1.633-3.276 4.214l.451 6.126-2.156.157-.485-6.596c-.172-2.336-1.38-3.395-3.33-3.252-2.156.157-3.468 1.632-3.279 4.212l.454 6.126-2.157.16-.875-11.895 2.064-.151.131 1.773c.761-1.276 2.171-2.056 3.967-2.19 1.82-.133 3.398.473 4.293 1.897.798-1.414 2.394-2.39 4.414-2.537 2.894-.214 4.994 1.3 5.251 4.802z"/></g><g><path d="M148.55 71.103c.075-2.037 1.5-3.54 3.563-3.693 2.088-.153 3.696 1.149 4.07 3.13zm9.764.837c.008-.205.01-.477-.001-.656-.27-3.657-2.896-5.947-6.33-5.692-3.436.253-5.786 2.977-5.526 6.5.262 3.546 3.007 5.894 6.844 5.61 1.976-.146 3.565-.939 4.55-2.276l-1.293-1.304c-.805 1.03-1.935 1.586-3.33 1.69-2.354.172-4.14-1.094-4.564-3.163z"/></g><g><path d="M172.517 69.268l.504 6.844-2.153.16-.488-6.6c-.172-2.332-1.424-3.392-3.466-3.24-2.287.169-3.67 1.648-3.477 4.228l.45 6.127-2.153.157-.878-11.893 2.064-.153.134 1.797c.785-1.278 2.26-2.086 4.147-2.224 2.893-.213 5.056 1.295 5.316 4.797z"/></g><g><path d="M183.656 74.629c-.609.608-1.579.95-2.544 1.023-2.4.177-3.868-1.047-4.043-3.448l-.482-6.532-2.02.15-.132-1.772 2.02-.15-.19-2.603 2.153-.16.191 2.605 3.412-.252.132 1.773-3.413.252.476 6.44c.094 1.279.821 1.949 2.01 1.862.628-.05 1.218-.294 1.642-.687z"/></g><g><path d="M46.116 92.786c-.082-1.123.69-1.97 2.105-2.073 1.343-.1 2.137.54 2.214 1.573.073.988-.548 1.756-2.527 3.073-1.375-1.205-1.734-1.765-1.792-2.573zm6.228 8.859c-.94 1.06-2.226 1.652-3.73 1.763-2.108.156-3.6-.75-3.708-2.252-.093-1.257.536-2.23 2.643-3.626zm4.719 1.57l-2.267-1.955c.555-1.033.938-2.28 1.106-3.691l-1.771-.434a9.946 9.946 0 0 1-.754 2.922l-4.17-3.575c2.303-1.545 3.16-2.76 3.045-4.353-.151-2.042-1.768-3.163-4.148-2.988-2.58.19-4.137 1.726-3.982 3.837.088 1.166.63 2.14 2.149 3.45-2.6 1.75-3.601 3.178-3.458 5.106.177 2.403 2.612 3.914 5.798 3.679 2.089-.153 3.832-.98 5.103-2.406l2.24 1.933z"/></g><g><path d="M64.724 88.05l2.243-.165 1.159 15.708-2.243.165z"/></g><g><path d="M83.31 95.593l.504 6.844-2.153.16-.488-6.6c-.172-2.332-1.423-3.392-3.465-3.24-2.287.169-3.67 1.648-3.481 4.228l.452 6.127-2.154.157-.878-11.893 2.066-.153.134 1.797c.786-1.278 2.26-2.086 4.145-2.224 2.895-.213 5.06 1.295 5.318 4.797z"/></g><g><path d="M98.595 94.466l.504 6.844-2.153.16-.488-6.6c-.172-2.332-1.423-3.392-3.466-3.24-2.286.169-3.668 1.648-3.48 4.228l.454 6.127-2.156.157-.876-11.893 2.064-.153.134 1.797c.785-1.278 2.26-2.086 4.145-2.224 2.895-.213 5.061 1.295 5.318 4.797z"/></g><g><path d="M111.814 94.393c.187 2.537-1.396 4.322-3.684 4.492-2.289.169-4.14-1.366-4.329-3.9-.187-2.537 1.421-4.302 3.711-4.47 2.289-.17 4.115 1.343 4.302 3.878zm-10.188.752c.259 3.545 3.075 5.888 6.643 5.624 3.567-.262 5.985-2.99 5.723-6.536-.262-3.546-3.051-5.867-6.618-5.605-3.568.265-6.01 2.971-5.748 6.517z"/></g><g><path d="M126.727 87.314l-4.329 12.277-2.197.162-6.085-11.508 2.243-.167 4.787 9.237 3.471-9.846z"/></g><g><path d="M136.25 94.917c-.44 1.406-1.664 2.243-3.278 2.362-1.64.121-2.681-.548-2.768-1.736-.075-1.012.468-1.888 2.6-2.042l3.322-.246zm1.892-3.706c-.24-3.255-2.195-4.69-5.452-4.45-1.906.14-3.64.81-4.802 1.89l1.016 1.55c.863-.855 2.265-1.454 3.679-1.558 2.13-.158 3.265.82 3.398 2.638l.032.425-3.413.252c-3.545.262-4.664 1.923-4.523 3.832.153 2.064 1.965 3.373 4.657 3.174 1.862-.135 3.14-.863 3.778-1.993l.117 1.572 2.042-.15z"/></g><g><path d="M149.303 96.909c-.61.609-1.577.95-2.542 1.023-2.401.178-3.868-1.047-4.045-3.448l-.483-6.53-2.017.149-.132-1.773 2.02-.148-.191-2.605 2.154-.157.19 2.602 3.414-.252.13 1.773-3.412.252.476 6.44c.092 1.279.819 1.949 2.01 1.862.628-.046 1.218-.294 1.639-.687z"/></g><g><path d="M151.08 85.518l2.158-.16.875 11.896-2.154.158zm.705-5.173c.829-.063 1.5.498 1.559 1.261.059.808-.5 1.48-1.353 1.543-.832.063-1.504-.497-1.562-1.283-.058-.786.524-1.46 1.356-1.52z"/></g><g><path d="M166.87 90.333c.188 2.537-1.395 4.322-3.683 4.492-2.29.17-4.14-1.365-4.33-3.9-.185-2.537 1.423-4.302 3.712-4.47 2.289-.169 4.115 1.344 4.302 3.878zm-10.187.752c.262 3.546 3.075 5.889 6.643 5.624 3.567-.262 5.985-2.99 5.723-6.536-.262-3.546-3.051-5.866-6.618-5.605-3.57.265-6.01 2.971-5.748 6.517z"/></g><g><path d="M183.256 88.223l.504 6.844-2.153.16-.485-6.599c-.175-2.333-1.424-3.393-3.47-3.24-2.285.167-3.665 1.647-3.476 4.227l.45 6.126-2.153.158-.878-11.894 2.067-.153.13 1.798c.786-1.279 2.26-2.086 4.148-2.224 2.893-.214 5.059 1.295 5.316 4.797z"/></g></g></svg>