<?xml version="1.0" encoding="utf-8"?>
<!-- Generator: Adobe Illustrator 20.1.0, SVG Export Plug-In . SVG Version: 6.00 Build 0)  -->
<svg version="1.1" id="Calque_1" xmlns="http://www.w3.org/2000/svg" xmlns:xlink="http://www.w3.org/1999/xlink" x="0px" y="0px"
	 viewBox="0 0 139.4 129.3" style="enable-background:new 0 0 139.4 129.3;" xml:space="preserve">
<style type="text/css">
	.st0{fill:#4E626E;}
	.st1{fill:url(#SVGID_1_);}
	.st2{fill:url(#SVGID_2_);}
	.st3{fill:url(#SVGID_3_);}
	.st4{fill:url(#SVGID_4_);}
	.st5{fill:url(#SVGID_5_);}
	.st6{fill:url(#SVGID_6_);}
	.st7{fill:url(#SVGID_7_);}
	.st8{fill:url(#SVGID_8_);}
	.st9{fill:url(#SVGID_9_);}
	.st10{fill:url(#SVGID_10_);}
	.st11{fill:url(#SVGID_11_);}
	.st12{fill:url(#SVGID_12_);}
	.st13{fill:url(#SVGID_13_);}
	.st14{fill:url(#SVGID_14_);}
	.st15{fill:url(#SVGID_15_);}
	.st16{fill:url(#SVGID_16_);}
	.st17{fill:url(#SVGID_17_);}
	.st18{fill:url(#SVGID_18_);}
	.st19{fill:url(#SVGID_19_);}
	.st20{fill:url(#SVGID_20_);}
	.st21{fill:url(#SVGID_21_);}
	.st22{fill:url(#SVGID_22_);}
	.st23{fill:url(#SVGID_23_);}
	.st24{fill:url(#SVGID_24_);}
	.st25{fill:url(#SVGID_25_);}
	.st26{fill:url(#SVGID_26_);}
	.st27{fill:url(#SVGID_27_);}
	.st28{fill:url(#SVGID_28_);}
	.st29{fill:#BD8028;}
	.st30{fill:#DCA300;}
</style>
<g>
	<path class="st0" d="M1.4,59.8h3.8v22.9h6.3v3.8H1.4V59.8z"/>
	<path class="st0" d="M13,74.6c-0.2-4.3,1.8-6.7,5.5-6.7c5.3,0,5.8,3,5.8,8v2.4h-7.6V81c0,2.4,0.8,2.8,2,2.8c1.4,0,1.8-1.1,1.8-3.4
		h3.8c0.1,4-1.4,6.6-5.3,6.6c-4.4,0-6.2-2.3-6.1-7.6V74.6z M20.6,75.1v-1.6c0-1.8-0.5-2.4-2-2.4c-1.9,0-1.8,1.6-1.8,3.2v0.7H20.6z"
		/>
	<path class="st0" d="M30.4,80.5c-0.3,3.3,0.9,3.2,1.8,3.2c1.1,0,1.8-0.9,1.6-2c-0.1-1-1.1-1.6-1.9-2.1L29.7,78
		c-1.9-1.4-3.1-3.1-3.1-5.7c0-2.8,2-4.4,5.7-4.4c3.7,0,5.4,2.1,5.3,6h-3.8c0.1-2-0.4-2.8-1.8-2.8c-0.9,0-1.6,0.4-1.6,1.5
		c0,1.1,0.7,1.5,1.4,2.1l3.1,2.3c1,0.6,2.5,2.3,2.6,3.6c0.3,3.1-0.4,6.4-5.6,6.4c-2,0-5.8-0.9-5.3-6.4H30.4z"/>
	<path class="st0" d="M12.7,102.4v3.5c0,4.3-1.9,6.6-5.7,6.6H5.2v10H1.4V95.8H7C10.8,95.8,12.7,98.1,12.7,102.4z M5.2,99.6v9H7
		c1.2,0,1.9-0.6,1.9-2.5v-4c0-1.9-0.7-2.5-1.9-2.5H5.2z"/>
	<path class="st0" d="M18.1,107h5.2v3.8h-5.2v7.8h6.6v3.8H14.3V95.8h10.4v3.8h-6.6V107z M23.6,90.1L20,94.4h-2.6l2.4-4.2H23.6z"/>
	<path class="st0" d="M38.1,102.4v3.5c0,4.3-1.9,6.6-5.7,6.6h-1.8v10h-3.8V95.8h5.6C36.2,95.8,38.1,98.1,38.1,102.4z M30.6,99.6v9
		h1.8c1.2,0,1.9-0.6,1.9-2.5v-4c0-1.9-0.7-2.5-1.9-2.5H30.6z"/>
	<path class="st0" d="M39.7,95.8h3.8v26.7h-3.8V95.8z"/>
	<path class="st0" d="M44.8,95.8h11.8v3.8h-4v22.9h-3.8V99.6h-4V95.8z"/>
	<path class="st0" d="M61.7,107H67v3.8h-5.2v7.8h6.6v3.8H57.9V95.8h10.4v3.8h-6.6V107z"/>
	<path class="st0" d="M75.5,95.5c3.7,0,5.6,2.4,5.6,6.7v0.8h-3.6v-1.1c0-1.9-0.7-2.6-1.9-2.6c-1.2,0-1.9,0.7-1.9,2.6
		c0,5.5,7.5,6.5,7.5,14.2c0,4.3-1.9,6.7-5.7,6.7s-5.7-2.4-5.7-6.7v-1.6h3.6v1.9c0,1.9,0.8,2.6,2,2.6c1.2,0,2-0.7,2-2.6
		c0-5.5-7.5-6.5-7.5-14.2C69.9,97.9,71.8,95.5,75.5,95.5z"/>
	<path class="st0" d="M86.9,95.8h11.8v3.8h-4v22.9h-3.8V99.6h-4V95.8z"/>
	<path class="st0" d="M103.9,107h5.2v3.8h-5.2v7.8h6.6v3.8H100V95.8h10.4v3.8h-6.6V107z"/>
	<path class="st0" d="M123.5,112.5v3.5c0,4.3-1.9,6.7-5.7,6.7c-3.8,0-5.7-2.4-5.7-6.7v-13.9c0-4.3,1.9-6.7,5.7-6.7
		c3.8,0,5.7,2.4,5.7,6.7v2.6h-3.6v-2.9c0-1.9-0.8-2.6-2-2.6c-1.2,0-2,0.7-2,2.6v14.4c0,1.9,0.8,2.6,2,2.6c1.2,0,2-0.7,2-2.6v-3.8
		H123.5z"/>
	<path class="st0" d="M129.3,122.5h-3.8V95.8h3.8v11.4h4.3V95.8h3.9v26.7h-3.9v-11.4h-4.3V122.5z"/>
</g>
<g>
	
		<linearGradient id="SVGID_1_" gradientUnits="userSpaceOnUse" x1="-1154.2498" y1="1066.7635" x2="-1137.6735" y2="1066.7635" gradientTransform="matrix(0.7373 0.2907 -0.289 0.7362 1183.7694 -415.1768)">
		<stop  offset="0" style="stop-color:#00474C"/>
		<stop  offset="0.1134" style="stop-color:#00575E"/>
		<stop  offset="0.3548" style="stop-color:#00737D"/>
		<stop  offset="0.5882" style="stop-color:#008794"/>
		<stop  offset="0.808" style="stop-color:#0094A2"/>
		<stop  offset="1" style="stop-color:#0098A7"/>
	</linearGradient>
	<polygon class="st1" points="28.4,43.1 36.9,32.8 23.8,30.3 	"/>
	
		<linearGradient id="SVGID_2_" gradientUnits="userSpaceOnUse" x1="-1158.3572" y1="1068.6583" x2="-1145.6974" y2="1068.6583" gradientTransform="matrix(0.7373 0.2907 -0.289 0.7362 1183.7694 -415.1768)">
		<stop  offset="0" style="stop-color:#00474C"/>
		<stop  offset="0.1134" style="stop-color:#00575E"/>
		<stop  offset="0.3548" style="stop-color:#00737D"/>
		<stop  offset="0.5882" style="stop-color:#008794"/>
		<stop  offset="0.808" style="stop-color:#0094A2"/>
		<stop  offset="1" style="stop-color:#0098A7"/>
	</linearGradient>
	<polygon class="st2" points="28.4,43.1 18.9,39.8 23.8,30.3 	"/>
	
		<linearGradient id="SVGID_3_" gradientUnits="userSpaceOnUse" x1="-1158.3572" y1="1077.5118" x2="-1142.3131" y2="1077.5118" gradientTransform="matrix(0.7373 0.2907 -0.289 0.7362 1183.7694 -415.1768)">
		<stop  offset="0" style="stop-color:#0098A7"/>
		<stop  offset="0.2531" style="stop-color:#0399A8"/>
		<stop  offset="0.4379" style="stop-color:#0C9CAA"/>
		<stop  offset="0.6009" style="stop-color:#1CA1AE"/>
		<stop  offset="0.7514" style="stop-color:#33A8B3"/>
		<stop  offset="0.8919" style="stop-color:#4FB1BA"/>
		<stop  offset="1" style="stop-color:#6BBAC1"/>
	</linearGradient>
	<polygon class="st3" points="18.9,39.8 29.3,48 28.4,43.1 	"/>
	
		<linearGradient id="SVGID_4_" gradientUnits="userSpaceOnUse" x1="-1145.6974" y1="1075.0577" x2="-1131.5809" y2="1075.0577" gradientTransform="matrix(0.7373 0.2907 -0.289 0.7362 1183.7694 -415.1768)">
		<stop  offset="0" style="stop-color:#00474C"/>
		<stop  offset="0.3384" style="stop-color:#005F67"/>
		<stop  offset="0.7574" style="stop-color:#007983"/>
		<stop  offset="1" style="stop-color:#00828E"/>
	</linearGradient>
	<polygon class="st4" points="28.4,43.1 29.3,48 40.2,43.6 	"/>
	
		<linearGradient id="SVGID_5_" gradientUnits="userSpaceOnUse" x1="-1142.4921" y1="1066.7635" x2="-1128.3756" y2="1066.7635" gradientTransform="matrix(0.7373 0.2907 -0.289 0.7362 1183.7694 -415.1768)">
		<stop  offset="0" style="stop-color:#0098A7"/>
		<stop  offset="0.2531" style="stop-color:#0399A8"/>
		<stop  offset="0.4379" style="stop-color:#0C9CAA"/>
		<stop  offset="0.6009" style="stop-color:#1CA1AE"/>
		<stop  offset="0.7514" style="stop-color:#33A8B3"/>
		<stop  offset="0.8919" style="stop-color:#4FB1BA"/>
		<stop  offset="1" style="stop-color:#6BBAC1"/>
	</linearGradient>
	<polygon class="st5" points="28.4,43.1 40.2,43.6 36.9,32.8 	"/>
	
		<linearGradient id="SVGID_6_" gradientUnits="userSpaceOnUse" x1="-1149.7296" y1="1053.9781" x2="-1133.9725" y2="1053.9781" gradientTransform="matrix(0.7373 0.2907 -0.289 0.7362 1183.7694 -415.1768)">
		<stop  offset="0" style="stop-color:#6BBAC1"/>
		<stop  offset="0.2531" style="stop-color:#68B8C0"/>
		<stop  offset="0.4379" style="stop-color:#5FB4BB"/>
		<stop  offset="0.6009" style="stop-color:#4FABB4"/>
		<stop  offset="0.7514" style="stop-color:#389FA9"/>
		<stop  offset="0.8919" style="stop-color:#1C909B"/>
		<stop  offset="1" style="stop-color:#00828E"/>
	</linearGradient>
	<polygon class="st6" points="32.8,23.1 43.1,31.2 36.9,32.8 	"/>
	
		<linearGradient id="SVGID_7_" gradientUnits="userSpaceOnUse" x1="-1140.4209" y1="1061.9518" x2="-1131.5809" y2="1061.9518" gradientTransform="matrix(0.7373 0.2907 -0.289 0.7362 1183.7694 -415.1768)">
		<stop  offset="0" style="stop-color:#00474C"/>
		<stop  offset="0.3384" style="stop-color:#005F67"/>
		<stop  offset="0.7574" style="stop-color:#007983"/>
		<stop  offset="1" style="stop-color:#00828E"/>
	</linearGradient>
	<polygon class="st7" points="36.9,32.8 40.2,43.6 43.1,31.2 	"/>
	
		<linearGradient id="SVGID_8_" gradientUnits="userSpaceOnUse" x1="-1156.9972" y1="1055.5911" x2="-1140.4209" y2="1055.5911" gradientTransform="matrix(0.7373 0.2907 -0.289 0.7362 1183.7694 -415.1768)">
		<stop  offset="0" style="stop-color:#0098A7"/>
		<stop  offset="0.4411" style="stop-color:#0095A4"/>
		<stop  offset="0.7626" style="stop-color:#008D9B"/>
		<stop  offset="1" style="stop-color:#00828E"/>
	</linearGradient>
	<polygon class="st8" points="36.9,32.8 32.8,23.1 23.8,30.3 	"/>
	
		<linearGradient id="SVGID_9_" gradientUnits="userSpaceOnUse" x1="-1160.6984" y1="1055.5911" x2="-1149.7296" y2="1055.5911" gradientTransform="matrix(0.7373 0.2907 -0.289 0.7362 1183.7694 -415.1768)">
		<stop  offset="0" style="stop-color:#00474C"/>
		<stop  offset="0.1134" style="stop-color:#00575E"/>
		<stop  offset="0.3548" style="stop-color:#00737D"/>
		<stop  offset="0.5882" style="stop-color:#008794"/>
		<stop  offset="0.808" style="stop-color:#0094A2"/>
		<stop  offset="1" style="stop-color:#0098A7"/>
	</linearGradient>
	<polygon class="st9" points="23.8,30.3 21.7,27.5 32.8,23.1 	"/>
	
		<linearGradient id="SVGID_10_" gradientUnits="userSpaceOnUse" x1="-1160.6984" y1="1067.4838" x2="-1156.9972" y2="1067.4838" gradientTransform="matrix(0.7373 0.2907 -0.289 0.7362 1183.7694 -415.1768)">
		<stop  offset="0" style="stop-color:#6BBAC1"/>
		<stop  offset="0.2531" style="stop-color:#68B8C0"/>
		<stop  offset="0.4379" style="stop-color:#5FB4BB"/>
		<stop  offset="0.6009" style="stop-color:#4FABB4"/>
		<stop  offset="0.7514" style="stop-color:#389FA9"/>
		<stop  offset="0.8919" style="stop-color:#1C909B"/>
		<stop  offset="1" style="stop-color:#00828E"/>
	</linearGradient>
	<polygon class="st10" points="21.7,27.5 18.9,39.8 23.8,30.3 	"/>
</g>
<g>
	
		<linearGradient id="SVGID_11_" gradientUnits="userSpaceOnUse" x1="1265.9427" y1="-9.7086" x2="1278.1792" y2="-9.7086" gradientTransform="matrix(1.5152 -0.416 0.416 1.5154 -1798.9456 564.7632)">
		<stop  offset="0" style="stop-color:#BD4B5D"/>
		<stop  offset="0.3305" style="stop-color:#BB384E"/>
		<stop  offset="0.6875" style="stop-color:#BA2A44"/>
		<stop  offset="1" style="stop-color:#BA2540"/>
	</linearGradient>
	<polygon class="st11" points="131.9,11.4 112.9,15 125.2,29.7 	"/>
	
		<linearGradient id="SVGID_12_" gradientUnits="userSpaceOnUse" x1="1234.8297" y1="-129.9381" x2="1240.3297" y2="-138.1881" gradientTransform="matrix(1.3382 -0.3674 0.3674 1.3382 -1473.4817 657.3023)">
		<stop  offset="0" style="stop-color:#531B1D"/>
		<stop  offset="0.11" style="stop-color:#591B1F"/>
		<stop  offset="1" style="stop-color:#88182C"/>
	</linearGradient>
	<polygon class="st12" points="131.9,11.4 139.4,23.6 125.2,29.7 	"/>
	
		<linearGradient id="SVGID_13_" gradientUnits="userSpaceOnUse" x1="1278.1792" y1="-11.5296" x2="1281.3792" y2="-11.5296" gradientTransform="matrix(1.5152 -0.416 0.416 1.5154 -1798.9456 564.7632)">
		<stop  offset="0" style="stop-color:#6C1422"/>
		<stop  offset="0.4377" style="stop-color:#951D32"/>
		<stop  offset="0.7913" style="stop-color:#B0233C"/>
		<stop  offset="1" style="stop-color:#BA2540"/>
	</linearGradient>
	<polygon class="st13" points="139.4,23.6 135.3,5 131.9,11.4 	"/>
	
		<linearGradient id="SVGID_14_" gradientUnits="userSpaceOnUse" x1="1272.3346" y1="-18.8364" x2="1281.3792" y2="-18.8364" gradientTransform="matrix(1.5152 -0.416 0.416 1.5154 -1798.9456 564.7632)">
		<stop  offset="0" style="stop-color:#BD4B5D"/>
		<stop  offset="0.3305" style="stop-color:#BB384E"/>
		<stop  offset="0.6875" style="stop-color:#BA2A44"/>
		<stop  offset="1" style="stop-color:#BA2540"/>
	</linearGradient>
	<polygon class="st14" points="131.9,11.4 135.3,5 119.2,0 	"/>
	
		<linearGradient id="SVGID_15_" gradientUnits="userSpaceOnUse" x1="1265.9427" y1="-18.8364" x2="1278.1792" y2="-18.8364" gradientTransform="matrix(1.5152 -0.416 0.416 1.5154 -1798.9456 564.7632)">
		<stop  offset="0" style="stop-color:#6C1422"/>
		<stop  offset="0.4377" style="stop-color:#951D32"/>
		<stop  offset="0.7913" style="stop-color:#B0233C"/>
		<stop  offset="1" style="stop-color:#BA2540"/>
	</linearGradient>
	<polygon class="st15" points="131.9,11.4 119.2,0 112.9,15 	"/>
	
		<linearGradient id="SVGID_16_" gradientUnits="userSpaceOnUse" x1="1260.8826" y1="-13.058" x2="1265.9427" y2="-13.058" gradientTransform="matrix(1.5152 -0.416 0.416 1.5154 -1798.9456 564.7632)">
		<stop  offset="0" style="stop-color:#531B1D"/>
		<stop  offset="0.11" style="stop-color:#591B1F"/>
		<stop  offset="1" style="stop-color:#88182C"/>
	</linearGradient>
	<polygon class="st16" points="108.6,29.4 104.7,11.1 112.9,15 	"/>
	
		<linearGradient id="SVGID_17_" gradientUnits="userSpaceOnUse" x1="1261.5339" y1="-19.3242" x2="1272.3346" y2="-19.3242" gradientTransform="matrix(1.5152 -0.416 0.416 1.5154 -1798.9456 564.7632)">
		<stop  offset="0" style="stop-color:#88182C"/>
		<stop  offset="0.1003" style="stop-color:#911A2F"/>
		<stop  offset="0.425" style="stop-color:#A72039"/>
		<stop  offset="0.7318" style="stop-color:#B5243E"/>
		<stop  offset="1" style="stop-color:#BA2540"/>
	</linearGradient>
	<polygon class="st17" points="112.9,15 119.2,0 104.7,11.1 	"/>
	
		<linearGradient id="SVGID_18_" gradientUnits="userSpaceOnUse" x1="1260.8826" y1="-9.7086" x2="1271.0216" y2="-9.7086" gradientTransform="matrix(1.5152 -0.416 0.416 1.5154 -1798.9456 564.7632)">
		<stop  offset="0" style="stop-color:#6C1422"/>
		<stop  offset="0.4377" style="stop-color:#951D32"/>
		<stop  offset="0.7913" style="stop-color:#B0233C"/>
		<stop  offset="1" style="stop-color:#BA2540"/>
	</linearGradient>
	<polygon class="st18" points="112.9,15 108.6,29.4 125.2,29.7 	"/>
	
		<linearGradient id="SVGID_19_" gradientUnits="userSpaceOnUse" x1="1219.1775" y1="-131.1445" x2="1230.658" y2="-131.1445" gradientTransform="matrix(1.3382 -0.3674 0.3674 1.3382 -1473.4817 657.3023)">
		<stop  offset="0" style="stop-color:#531B1D"/>
		<stop  offset="0.11" style="stop-color:#591B1F"/>
		<stop  offset="1" style="stop-color:#88182C"/>
	</linearGradient>
	<polygon class="st19" points="125.2,29.7 124.9,34.7 108.6,29.4 	"/>
	
		<linearGradient id="SVGID_20_" gradientUnits="userSpaceOnUse" x1="1229.4983" y1="-130.2188" x2="1241.6416" y2="-130.2188" gradientTransform="matrix(1.3382 -0.3674 0.3674 1.3382 -1473.4817 657.3023)">
		<stop  offset="0" style="stop-color:#BD4B5D"/>
		<stop  offset="0.3305" style="stop-color:#BB384E"/>
		<stop  offset="0.6875" style="stop-color:#BA2A44"/>
		<stop  offset="1" style="stop-color:#BA2540"/>
	</linearGradient>
	<polygon class="st20" points="124.9,34.7 139.4,23.6 125.2,29.7 	"/>
</g>
<g>
	
		<linearGradient id="SVGID_21_" gradientUnits="userSpaceOnUse" x1="257.326" y1="290.6931" x2="281.1162" y2="290.6931" gradientTransform="matrix(1.2714 0 -6.983330e-06 1.2714 -257.0831 -315.0262)">
		<stop  offset="0" style="stop-color:#F4D76F"/>
		<stop  offset="1" style="stop-color:#DCA200"/>
	</linearGradient>
	<polygon class="st21" points="77.9,39.3 70.1,69.8 100.3,61.8 	"/>
	
		<linearGradient id="SVGID_22_" gradientUnits="userSpaceOnUse" x1="263.4434" y1="286.5298" x2="281.7959" y2="286.5298" gradientTransform="matrix(1.2714 0 -6.983330e-06 1.2714 -257.0831 -315.0262)">
		<stop  offset="0" style="stop-color:#DCA200"/>
		<stop  offset="1" style="stop-color:#EABB53"/>
	</linearGradient>
	<polygon class="st22" points="77.9,39.3 101.2,36.7 100.3,61.8 	"/>
	
		<linearGradient id="SVGID_23_" gradientUnits="userSpaceOnUse" x1="258.0056" y1="274.9744" x2="281.7959" y2="274.9744" gradientTransform="matrix(1.2714 0 -6.983330e-06 1.2714 -257.0831 -315.0262)">
		<stop  offset="0" style="stop-color:#9B731C"/>
		<stop  offset="1" style="stop-color:#DCA200"/>
	</linearGradient>
	<polygon class="st23" points="101.2,36.7 71,29.8 77.9,39.3 	"/>
	<linearGradient id="SVGID_24_" gradientUnits="userSpaceOnUse" x1="65.122" y1="28.9541" x2="65.122" y2="46.9541">
		<stop  offset="0" style="stop-color:#F4D76F"/>
		<stop  offset="0.2716" style="stop-color:#F2D46C"/>
		<stop  offset="0.4698" style="stop-color:#ECCC63"/>
		<stop  offset="0.6447" style="stop-color:#E2BE53"/>
		<stop  offset="0.8061" style="stop-color:#D4AB3C"/>
		<stop  offset="0.9569" style="stop-color:#C29120"/>
		<stop  offset="1" style="stop-color:#BC8916"/>
	</linearGradient>
	<polygon class="st24" points="77.9,39.3 71,29.8 52.4,50.1 	"/>
	<linearGradient id="SVGID_25_" gradientUnits="userSpaceOnUse" x1="53.665" y1="58.6374" x2="78.665" y2="53.6374">
		<stop  offset="0" style="stop-color:#F4D76F"/>
		<stop  offset="0.2716" style="stop-color:#F2D46C"/>
		<stop  offset="0.4698" style="stop-color:#ECCC63"/>
		<stop  offset="0.6447" style="stop-color:#E2BE53"/>
		<stop  offset="0.8061" style="stop-color:#D4AB3C"/>
		<stop  offset="0.9569" style="stop-color:#C29120"/>
		<stop  offset="1" style="stop-color:#BC8916"/>
	</linearGradient>
	<polygon class="st25" points="77.9,39.3 52.4,50.1 70.1,69.8 	"/>
	
		<linearGradient id="SVGID_26_" gradientUnits="userSpaceOnUse" x1="248.4047" y1="309.0882" x2="271.7702" y2="309.0882" gradientTransform="matrix(1.2714 0 -6.983330e-06 1.2714 -257.0831 -315.0262)">
		<stop  offset="0" style="stop-color:#F4D76F"/>
		<stop  offset="1" style="stop-color:#DCA200"/>
	</linearGradient>
	<polygon class="st26" points="88.5,86.1 58.7,79.3 70.1,69.8 	"/>
	
		<linearGradient id="SVGID_27_" gradientUnits="userSpaceOnUse" x1="243.3917" y1="298.6798" x2="257.326" y2="298.6798" gradientTransform="matrix(1.2714 0 -6.983330e-06 1.2714 -257.0831 -315.0262)">
		<stop  offset="0" style="stop-color:#9B731C"/>
		<stop  offset="1" style="stop-color:#DCA200"/>
	</linearGradient>
	<polygon class="st27" points="70.1,69.8 52.4,50.1 58.7,79.3 	"/>
	
		<linearGradient id="SVGID_28_" gradientUnits="userSpaceOnUse" x1="257.326" y1="305.9445" x2="281.1162" y2="305.9445" gradientTransform="matrix(1.2714 0 -6.983330e-06 1.2714 -257.0831 -315.0262)">
		<stop  offset="0" style="stop-color:#DCA200"/>
		<stop  offset="1" style="stop-color:#EABB53"/>
	</linearGradient>
	<polygon class="st28" points="70.1,69.8 88.5,86.1 100.3,61.8 	"/>
	<polygon class="st29" points="100.3,61.8 107.5,65.7 88.5,86.1 	"/>
	<polygon class="st30" points="107.5,65.7 101.2,36.7 100.3,61.8 	"/>
</g>
</svg>
