<svg width="128" height="64" viewBox="0 0 128 64" fill="none" xmlns="http://www.w3.org/2000/svg">
<path d="M27.7763 63.3182C28.0606 63.3182 28.3012 63.2307 28.5199 63.0776C28.7386 62.9245 28.848 62.7058 28.848 62.4434H29.2417V62.4652C29.2417 62.8152 29.1105 63.0995 28.8043 63.3182C28.4981 63.5369 28.1481 63.6682 27.7544 63.6682C27.2295 63.6682 26.8139 63.4932 26.5077 63.1432C26.2015 62.7933 26.0703 62.3559 26.0703 61.831V61.6778C26.0703 61.1529 26.2234 60.6936 26.5077 60.3656C26.8139 60.0156 27.2295 59.8406 27.7544 59.8406C28.1919 59.8406 28.5418 59.95 28.8261 60.1906C29.1105 60.4312 29.2417 60.7374 29.2417 61.1311V61.1529H28.848C28.848 60.8686 28.7386 60.628 28.5418 60.453C28.3231 60.2781 28.0825 60.1906 27.7763 60.1906C27.3607 60.1906 27.0545 60.3218 26.8358 60.6061C26.639 60.8905 26.5296 61.2404 26.5296 61.6778V61.831C26.5296 62.2684 26.639 62.6183 26.8358 62.9027C27.0327 63.1651 27.3607 63.3182 27.7763 63.3182Z" fill="#25346C"/>
<path d="M30.1602 61.6997C30.1602 61.1529 30.3133 60.7155 30.6413 60.3656C30.9694 60.0156 31.385 59.8406 31.9318 59.8406C32.4567 59.8406 32.8941 60.0156 33.2222 60.3656C33.5502 60.7155 33.7034 61.1529 33.7034 61.6997V61.8091C33.7034 62.3559 33.5502 62.7933 33.2222 63.1432C32.8941 63.4932 32.4785 63.6682 31.9318 63.6682C31.385 63.6682 30.9694 63.4932 30.6413 63.1432C30.3133 62.7933 30.1602 62.3559 30.1602 61.8091V61.6997ZM30.5976 61.8091C30.5976 62.2246 30.7069 62.5965 30.9475 62.8808C31.1881 63.1651 31.5162 63.3182 31.9318 63.3182C32.3473 63.3182 32.6754 63.1651 32.8941 62.8808C33.1347 62.5965 33.244 62.2246 33.244 61.8091V61.6997C33.244 61.2842 33.1347 60.9342 32.8941 60.628C32.6535 60.3437 32.3254 60.1906 31.9099 60.1906C31.4943 60.1906 31.1662 60.3437 30.9257 60.628C30.6851 60.9123 30.5757 61.2842 30.5757 61.6997V61.8091H30.5976Z" fill="#25346C"/>
<path d="M35.3202 63.5807H34.8828V58.2878H35.3202V63.5807Z" fill="#25346C"/>
<path d="M37.2265 63.5807H36.7891V58.2878H37.2265V63.5807Z" fill="#25346C"/>
<path d="M41.1839 63.5807C41.1621 63.4494 41.1402 63.3401 41.1183 63.2526C41.0965 63.1651 41.0965 63.0558 41.0965 62.9683C40.9652 63.1651 40.7684 63.3401 40.5059 63.4713C40.2653 63.6026 39.9591 63.6682 39.6529 63.6682C39.2592 63.6682 38.953 63.5807 38.7343 63.3838C38.5156 63.187 38.4062 62.9245 38.4062 62.5965C38.4062 62.2684 38.5594 62.0059 38.8656 61.7872C39.1718 61.5904 39.5873 61.481 40.0904 61.481H41.0746V61.0217C41.0746 60.7592 40.9871 60.5624 40.8121 60.4093C40.6372 60.2562 40.3747 60.1906 40.0466 60.1906C39.7404 60.1906 39.4998 60.2562 39.303 60.3874C39.1061 60.5187 39.0187 60.6936 39.0187 60.8905H38.625V60.8686C38.6031 60.5843 38.7343 60.3437 39.0187 60.1468C39.303 59.95 39.6529 59.8406 40.0904 59.8406C40.5278 59.8406 40.8777 59.95 41.1402 60.1468C41.4027 60.3437 41.5339 60.6499 41.5339 61.0436V62.8589C41.5339 62.9901 41.5339 63.1214 41.5558 63.2307C41.5776 63.362 41.5995 63.4713 41.6432 63.6025H41.1839V63.5807ZM39.6967 63.2963C40.0466 63.2963 40.3309 63.2307 40.5715 63.0776C40.8121 62.9245 40.9871 62.7277 41.0746 62.509V61.8091H40.0904C39.7404 61.8091 39.4342 61.8966 39.1936 62.0497C38.953 62.2028 38.8437 62.3996 38.8437 62.6183C38.8437 62.837 38.9093 62.9901 39.0624 63.1214C39.2374 63.2307 39.4342 63.2963 39.6967 63.2963Z" fill="#25346C"/>
<path d="M46.1471 61.8528C46.1471 62.3996 46.0159 62.837 45.7316 63.1651C45.4691 63.4932 45.0754 63.6463 44.6161 63.6463C44.3318 63.6463 44.0693 63.6025 43.8506 63.4932C43.6319 63.3838 43.4569 63.2307 43.3257 63.0339L43.2601 63.5807H42.9102V58.2878H43.3476V60.4749C43.4788 60.2781 43.6538 60.125 43.8506 60.0156C44.0475 59.9062 44.3099 59.8406 44.5943 59.8406C45.0754 59.8406 45.4473 60.0156 45.7316 60.3656C45.994 60.7155 46.1471 61.1967 46.1471 61.7653V61.8528ZM45.6878 61.7872C45.6878 61.3279 45.5785 60.9342 45.3816 60.6499C45.1848 60.3655 44.9005 60.2124 44.5068 60.2124C44.2006 60.2124 43.96 60.2781 43.7631 60.4093C43.5663 60.5405 43.4351 60.7155 43.3476 60.9342V62.6183C43.4569 62.837 43.5882 62.9901 43.785 63.1214C43.9819 63.2526 44.2224 63.2963 44.5068 63.2963C44.9005 63.2963 45.1848 63.1651 45.3816 62.9027C45.5785 62.6402 45.666 62.2902 45.666 61.8528V61.7872H45.6878Z" fill="#25346C"/>
<path d="M47.0664 61.6997C47.0664 61.1529 47.2195 60.7155 47.5476 60.3656C47.8757 60.0156 48.2912 59.8406 48.838 59.8406C49.3629 59.8406 49.8004 60.0156 50.1284 60.3656C50.4565 60.7155 50.6096 61.1529 50.6096 61.6997V61.8091C50.6096 62.3559 50.4565 62.7933 50.1284 63.1432C49.8004 63.4932 49.3848 63.6682 48.838 63.6682C48.2912 63.6682 47.8757 63.4932 47.5476 63.1432C47.2195 62.7933 47.0664 62.3559 47.0664 61.8091V61.6997ZM47.5257 61.8091C47.5257 62.2246 47.6351 62.5965 47.8757 62.8808C48.1162 63.1651 48.4443 63.3182 48.8599 63.3182C49.2754 63.3182 49.6035 63.1651 49.8222 62.8808C50.0628 62.5965 50.1722 62.2246 50.1722 61.8091V61.6997C50.1722 61.2842 50.0628 60.9342 49.8222 60.628C49.5816 60.3437 49.2536 60.1906 48.838 60.1906C48.4224 60.1906 48.0944 60.3437 47.8538 60.628C47.6132 60.9123 47.5038 61.2842 47.5038 61.6997V61.8091H47.5257Z" fill="#25346C"/>
<path d="M53.5614 60.2562L53.2552 60.2343C52.9709 60.2343 52.7522 60.2999 52.5772 60.453C52.4022 60.6061 52.271 60.803 52.1835 61.0436V63.5807H51.7461V59.9062H52.1398L52.2054 60.5187V60.5624C52.3148 60.3437 52.4679 60.1687 52.6647 60.0375C52.8615 59.9063 53.1021 59.8406 53.3646 59.8406C53.4083 59.8406 53.4739 59.8406 53.5177 59.8625C53.5614 59.8625 53.6052 59.8844 53.6489 59.8844L53.5614 60.2562Z" fill="#25346C"/>
<path d="M57.0394 63.5807C57.0175 63.4494 56.9957 63.3401 56.9738 63.2526C56.9519 63.1651 56.9519 63.0558 56.9519 62.9683C56.8207 63.1651 56.6239 63.3401 56.3614 63.4713C56.1208 63.6026 55.8146 63.6682 55.5084 63.6682C55.1147 63.6682 54.8085 63.5807 54.5898 63.3838C54.3711 63.187 54.2617 62.9245 54.2617 62.5965C54.2617 62.2684 54.4148 62.0059 54.721 61.7872C55.0272 61.5904 55.4428 61.481 55.9458 61.481H56.9301V61.0217C56.9301 60.7592 56.8426 60.5624 56.6676 60.4093C56.4926 60.2562 56.2302 60.1906 55.9021 60.1906C55.5959 60.1906 55.3553 60.2562 55.1585 60.3874C54.9616 60.5187 54.8741 60.6936 54.8741 60.8905H54.4586V60.8686C54.4367 60.5843 54.5679 60.3437 54.8523 60.1468C55.1366 59.95 55.4865 59.8406 55.924 59.8406C56.3614 59.8406 56.7113 59.95 56.9738 60.1468C57.2363 60.3437 57.3675 60.6499 57.3675 61.0436V62.8589C57.3675 62.9901 57.3675 63.1214 57.3894 63.2307C57.4112 63.362 57.4331 63.4713 57.4768 63.6025H57.0394V63.5807ZM55.574 63.2963C55.924 63.2963 56.2083 63.2307 56.4489 63.0776C56.6895 62.9245 56.8644 62.7277 56.9519 62.509V61.8091H55.9677C55.6178 61.8091 55.3116 61.8966 55.071 62.0497C54.8304 62.2028 54.721 62.3996 54.721 62.6183C54.721 62.837 54.7866 62.9901 54.9397 63.1214C55.1147 63.2307 55.3116 63.2963 55.574 63.2963Z" fill="#25346C"/>
<path d="M59.4678 58.9664V59.9069H60.3426V60.235H59.4678V62.619C59.4678 62.8596 59.5115 63.0346 59.6209 63.122C59.7084 63.2314 59.8396 63.2751 59.9927 63.2751C60.0365 63.2751 60.1021 63.2751 60.1458 63.2751C60.1895 63.2751 60.2552 63.2533 60.3208 63.2533L60.3864 63.5595C60.3208 63.5813 60.2552 63.6032 60.1677 63.6251C60.0802 63.647 59.9927 63.647 59.9052 63.647C59.6209 63.647 59.4022 63.5595 59.2491 63.4064C59.096 63.2533 59.0085 62.9908 59.0085 62.6409V60.2569H58.3086V59.9288H59.0085V58.9883H59.4678V58.9664Z" fill="#25346C"/>
<path d="M61.8945 58.8564H61.457V58.2878H61.8945V58.8564ZM61.8945 63.5807H61.457V59.9062H61.8945V63.5807Z" fill="#25346C"/>
<path d="M63.0781 61.6997C63.0781 61.1529 63.2312 60.7155 63.5593 60.3656C63.8874 60.0156 64.3029 59.8406 64.8497 59.8406C65.3746 59.8406 65.8121 60.0156 66.1401 60.3656C66.4682 60.7155 66.6213 61.1529 66.6213 61.6997V61.8091C66.6213 62.3559 66.4682 62.7933 66.1401 63.1432C65.8121 63.4932 65.3965 63.6682 64.8497 63.6682C64.3029 63.6682 63.8874 63.4932 63.5593 63.1432C63.2312 62.7933 63.0781 62.3559 63.0781 61.8091V61.6997ZM63.5156 61.8091C63.5156 62.2246 63.6249 62.5965 63.8655 62.8808C64.1061 63.1651 64.4342 63.3182 64.8497 63.3182C65.2653 63.3182 65.5934 63.1651 65.8121 62.8808C66.0527 62.5965 66.162 62.2246 66.162 61.8091V61.6997C66.162 61.2842 66.0527 60.9342 65.8121 60.628C65.5715 60.3437 65.2434 60.1906 64.8279 60.1906C64.4123 60.1906 64.0842 60.3437 63.8436 60.628C63.603 60.9123 63.4937 61.2842 63.4937 61.6997V61.8091H63.5156Z" fill="#25346C"/>
<path d="M68.1296 59.9062L68.1734 60.5405C68.3046 60.3218 68.4796 60.1468 68.6983 60.0156C68.917 59.8844 69.1795 59.8406 69.4638 59.8406C69.9012 59.8406 70.2293 59.9719 70.448 60.2125C70.6667 60.453 70.798 60.8249 70.798 61.3498V63.5807H70.3605V61.3498C70.3605 60.9342 70.273 60.628 70.0981 60.453C69.9231 60.2781 69.6825 60.1906 69.3763 60.1906C69.0701 60.1906 68.8076 60.2562 68.6108 60.4093C68.414 60.5624 68.2827 60.7374 68.1952 60.978V63.5807H67.7578V59.9062H68.1296Z" fill="#25346C"/>
<path d="M74.6679 58.8564H74.2305V58.2878H74.6679V58.8564ZM74.6679 63.5807H74.2305V59.9062H74.6679V63.5807Z" fill="#25346C"/>
<path d="M78.4965 62.6402C78.4965 62.4652 78.409 62.3121 78.2559 62.1809C78.1028 62.0497 77.8185 61.9403 77.4248 61.8747C76.9436 61.7872 76.5936 61.656 76.3749 61.5029C76.1343 61.3498 76.025 61.1311 76.025 60.8467C76.025 60.5624 76.1562 60.3218 76.4187 60.125C76.6811 59.9281 77.0092 59.8406 77.4466 59.8406C77.8841 59.8406 78.2559 59.95 78.5183 60.1468C78.7808 60.3437 78.912 60.6061 78.8902 60.9123V60.9342H78.4746C78.4746 60.7374 78.3871 60.5624 78.1903 60.4093C77.9934 60.2562 77.7528 60.1906 77.4466 60.1906C77.1186 60.1906 76.878 60.2562 76.7249 60.3874C76.5718 60.5187 76.4843 60.6718 76.4843 60.8467C76.4843 61.0217 76.5499 61.1529 76.703 61.2623C76.8342 61.3716 77.1186 61.4591 77.5341 61.5466C77.9934 61.6341 78.3652 61.7653 78.6058 61.9403C78.8464 62.1153 78.9776 62.334 78.9776 62.6183C78.9776 62.9245 78.8464 63.1651 78.5621 63.362C78.2996 63.5588 77.9278 63.6463 77.4904 63.6463C77.0092 63.6463 76.6155 63.5369 76.3531 63.3182C76.0687 63.0995 75.9375 62.8589 75.9594 62.5527V62.5308H76.3749C76.3968 62.7933 76.5062 62.9901 76.7249 63.0995C76.9436 63.2089 77.2061 63.2745 77.4904 63.2745C77.8185 63.2745 78.059 63.2089 78.2559 63.0776C78.3871 62.9901 78.4965 62.837 78.4965 62.6402Z" fill="#25346C"/>
<path d="M82.8701 58.9664V59.9069H83.745V60.235H82.8701V62.619C82.8701 62.8596 82.9139 63.0346 83.0232 63.122C83.1107 63.2314 83.242 63.2751 83.3951 63.2751C83.4388 63.2751 83.5044 63.2751 83.5481 63.2751C83.5919 63.2751 83.6575 63.2533 83.7231 63.2533L83.7887 63.5595C83.7231 63.5813 83.6575 63.6032 83.57 63.6251C83.4825 63.647 83.395 63.647 83.3076 63.647C83.0232 63.647 82.8045 63.5595 82.6514 63.4064C82.4983 63.2533 82.4108 62.9908 82.4108 62.6409V60.2569H81.7109V59.9288H82.4108V58.9883H82.8701V58.9664Z" fill="#25346C"/>
<path d="M85.2538 60.5408C85.3851 60.3221 85.56 60.1472 85.7788 60.0378C85.9975 59.9066 86.2599 59.8628 86.5443 59.8628C86.9598 59.8628 87.2879 59.9722 87.5066 60.2128C87.7253 60.4534 87.8566 60.8252 87.8566 61.3282V63.6029H87.4191V61.3282C87.4191 60.9345 87.3316 60.6502 87.1567 60.4752C86.9817 60.3003 86.7411 60.2128 86.4568 60.2128C86.1506 60.2128 85.8881 60.2784 85.6913 60.4315C85.4944 60.5627 85.3413 60.7596 85.2538 61.0001V63.6247H84.8164V58.3318H85.2538V60.5408Z" fill="#25346C"/>
<path d="M90.7458 63.6463C90.2209 63.6463 89.8053 63.4713 89.4773 63.1432C89.1492 62.8152 88.9961 62.3777 88.9961 61.8528V61.6778C88.9961 61.1529 89.1492 60.7155 89.4773 60.3656C89.8053 60.0156 90.2209 59.8406 90.7021 59.8406C91.1832 59.8406 91.5551 59.9937 91.8394 60.2781C92.1019 60.5624 92.2331 60.9561 92.2331 61.4373V61.7435H89.4335V61.8528C89.4335 62.2684 89.5429 62.6183 89.7835 62.9027C90.0241 63.187 90.3303 63.3182 90.7458 63.3182C90.9864 63.3182 91.2051 63.2745 91.4238 63.2089C91.6207 63.1432 91.7957 63.0339 91.9269 62.9027L92.1237 63.187C91.9925 63.3182 91.7957 63.4276 91.5769 63.5151C91.3582 63.6025 91.052 63.6463 90.7458 63.6463ZM90.7021 60.1906C90.3521 60.1906 90.0897 60.2999 89.871 60.5187C89.6522 60.7374 89.521 61.0217 89.4773 61.3716L89.4991 61.3935H91.7738V61.306C91.7738 60.978 91.6863 60.7155 91.4895 60.4968C91.3145 60.2999 91.052 60.1906 90.7021 60.1906Z" fill="#25346C"/>
<path d="M95.1625 61.787C95.1625 61.1964 95.2937 60.7371 95.5781 60.3872C95.8405 60.0372 96.2342 59.8623 96.7154 59.8623C96.9997 59.8623 97.2184 59.906 97.4371 60.0154C97.634 60.1247 97.809 60.2778 97.9402 60.4747V58.3094H98.3776V63.6023H98.0058L97.9402 63.0774C97.809 63.2742 97.634 63.4273 97.4153 63.5367C97.1965 63.6461 96.956 63.6898 96.6716 63.6898C96.1905 63.6898 95.8186 63.5367 95.5562 63.2086C95.2937 62.8805 95.1406 62.4431 95.1406 61.8963V61.787H95.1625ZM95.6218 61.8526C95.6218 62.29 95.7093 62.64 95.9061 62.9024C96.103 63.1649 96.3873 63.2961 96.781 63.2961C97.0653 63.2961 97.3059 63.2305 97.5028 63.1211C97.6996 63.0118 97.8308 62.8368 97.9402 62.64V60.8902C97.8308 60.6715 97.6996 60.5184 97.5028 60.3872C97.3278 60.256 97.0872 60.1903 96.781 60.1903C96.3873 60.1903 96.103 60.3434 95.9061 60.6278C95.7093 60.9121 95.6218 61.3058 95.6218 61.7651V61.8526Z" fill="#25346C"/>
<path d="M101.593 60.2562L101.286 60.2343C101.002 60.2343 100.783 60.2999 100.608 60.453C100.434 60.6061 100.302 60.803 100.215 61.0436V63.5807H99.7773V59.9062H100.171L100.237 60.5187V60.5624C100.346 60.3437 100.499 60.1687 100.696 60.0375C100.893 59.9063 101.133 59.8406 101.396 59.8406C101.44 59.8406 101.505 59.8406 101.549 59.8625C101.593 59.8844 101.636 59.8844 101.68 59.8844L101.593 60.2562Z" fill="#25346C"/>
<path d="M103.035 58.8564H102.598V58.2878H103.035V58.8564ZM103.035 63.5807H102.598V59.9062H103.035V63.5807Z" fill="#25346C"/>
<path d="M105.594 62.6622L105.726 63.0996H105.747L105.879 62.6622L106.972 59.9063H107.431L105.9 63.5808H105.551L104.02 59.9063H104.479L105.594 62.6622Z" fill="#25346C"/>
<path d="M109.816 63.6463C109.291 63.6463 108.876 63.4713 108.548 63.1432C108.22 62.8152 108.066 62.3777 108.066 61.8528V61.6778C108.066 61.1529 108.22 60.7155 108.548 60.3656C108.876 60.0156 109.291 59.8406 109.772 59.8406C110.254 59.8406 110.625 59.9937 110.91 60.2781C111.172 60.5624 111.303 60.9561 111.303 61.4373V61.7435H108.504V61.8528C108.504 62.2684 108.613 62.6183 108.854 62.9027C109.094 63.187 109.401 63.3182 109.816 63.3182C110.057 63.3182 110.275 63.2745 110.494 63.2089C110.691 63.1432 110.866 63.0339 110.997 62.9027L111.194 63.187C111.063 63.3182 110.866 63.4276 110.647 63.5151C110.429 63.6025 110.144 63.6463 109.816 63.6463ZM109.772 60.1906C109.422 60.1906 109.16 60.2999 108.941 60.5187C108.723 60.7374 108.591 61.0217 108.548 61.3716L108.569 61.3935H110.866V61.306C110.866 60.978 110.778 60.7155 110.582 60.4968C110.407 60.2999 110.122 60.1906 109.772 60.1906Z" fill="#25346C"/>
<path d="M114.214 60.2562L113.908 60.2343C113.623 60.2343 113.405 60.2999 113.23 60.453C113.055 60.6061 112.923 60.803 112.836 61.0436V63.5807H112.398V59.9062H112.792L112.858 60.5187V60.5624C112.967 60.3437 113.12 60.1687 113.317 60.0375C113.514 59.9063 113.754 59.8406 114.017 59.8406C114.061 59.8406 114.126 59.8406 114.17 59.8625C114.214 59.8625 114.258 59.8844 114.301 59.8844L114.214 60.2562Z" fill="#25346C"/>
<path d="M127.949 41.9934C127.818 41.5779 127.533 41.2498 127.096 41.0311L127.052 41.0092C126.702 40.878 126.374 40.8561 126.046 40.9655C125.674 41.0748 125.368 41.3154 125.084 41.6872C124.799 42.1247 124.362 42.5402 123.793 42.9558C123.203 43.3713 122.59 43.6775 121.956 43.8525C120.447 44.29 119.113 44.2025 117.844 43.5901C116.729 43.0433 115.919 42.2122 115.329 41.053L126.396 37.7941C126.833 37.6629 127.139 37.4223 127.336 37.0723C127.533 36.7224 127.577 36.3068 127.446 35.8694C126.986 34.3165 126.243 32.9823 125.259 31.9544C124.252 30.9045 123.049 30.1828 121.693 29.8328C120.337 29.461 118.872 29.5048 117.385 29.9422C116.029 30.3359 114.891 30.992 113.951 31.8669V0H0V49.561H113.951V44.4868C114.038 44.5961 114.148 44.7055 114.257 44.793C115.351 45.8647 116.663 46.5865 118.15 46.9364C119.003 47.1333 119.856 47.1989 120.753 47.1333C121.431 47.0895 122.109 46.9583 122.809 46.7396C123.749 46.4552 124.712 45.9741 125.608 45.3179C126.527 44.6399 127.249 43.9181 127.752 43.1308C127.992 42.7589 128.058 42.3652 127.949 41.9934ZM115.329 35.0383C115.963 33.9666 116.925 33.2448 118.281 32.8511C119.594 32.4574 120.775 32.5449 121.847 33.1354C122.809 33.6385 123.531 34.4259 124.056 35.4976L114.629 38.2753C114.541 37.0505 114.782 35.9787 115.329 35.0383Z" fill="#25346C"/>
<path d="M83.4407 21.6744C83.4407 21.3026 83.2876 20.9746 82.9376 20.6683C82.3471 20.2528 81.7347 20.2965 81.1441 20.734C80.7286 21.1058 80.1599 21.3901 79.46 21.6307C78.7601 21.8713 78.0384 22.0025 77.3385 22.0025C75.72 22.0025 74.3421 21.4995 73.2704 20.5152C72.2424 19.5966 71.63 18.3718 71.4332 16.9064H83.3969C83.7906 16.9064 84.0968 16.7971 84.3593 16.5565C84.5999 16.3159 84.7311 16.0097 84.7311 15.616C84.7311 14.0194 84.403 12.554 83.7469 11.3073C83.0907 10.0388 82.1721 9.03267 80.9692 8.31091C79.7881 7.58914 78.4102 7.2392 76.8792 7.2392C75.3044 7.2392 73.8828 7.61102 72.658 8.35465C71.4332 9.09828 70.4489 10.1262 69.7491 11.4385C69.0492 12.7508 68.6992 14.26 68.6992 15.9222C68.6992 17.5626 69.071 19.0717 69.8147 20.384C70.5583 21.6963 71.5863 22.7462 72.8986 23.4679C74.2109 24.2115 75.6981 24.5834 77.3385 24.5834C78.3008 24.5834 79.3288 24.3865 80.3786 24.0147C81.4285 23.6429 82.3033 23.1398 83.0032 22.5493C83.2876 22.2868 83.4407 22.0025 83.4407 21.6744ZM71.5207 14.5006C71.7612 13.1445 72.3518 12.0072 73.2485 11.1761C74.2109 10.2793 75.4357 9.82005 76.9011 9.82005C78.3446 9.82005 79.5475 10.2793 80.4443 11.1761C81.3191 12.0291 81.844 13.1445 82.0409 14.5224H71.5207V14.5006Z" fill="white"/>
<path d="M85.4766 23.1398C85.4766 23.4897 85.5859 23.7959 85.8265 24.0365C86.0671 24.2771 86.3733 24.4083 86.767 24.4083C87.2044 24.4083 87.5544 24.2552 87.7731 23.949L92.716 17.6938L97.4841 23.7741C97.6372 24.0146 97.834 24.1677 98.0308 24.2771C98.2277 24.3646 98.4683 24.4302 98.7526 24.4302C99.0807 24.4302 99.365 24.3208 99.6275 24.0803C99.8899 23.8397 100.021 23.5335 100.021 23.1835C100.021 22.8773 99.8899 22.5492 99.6275 22.2212L94.597 15.7691L99.4962 9.68876C99.7587 9.36069 99.8899 9.01074 99.8899 8.66079C99.8899 8.31085 99.7806 8.02652 99.54 7.76406C99.2994 7.52347 98.9713 7.39224 98.5995 7.39224C98.1402 7.39224 97.7465 7.61096 97.4184 8.02652L92.8035 13.8662L88.1012 7.82968C87.8168 7.54535 87.4669 7.39224 87.0513 7.39224C86.6358 7.39224 86.3077 7.52347 86.089 7.78593C85.8702 8.02652 85.7609 8.33272 85.7609 8.70454C85.7609 9.09823 85.8921 9.4263 86.1108 9.66689L90.9445 15.8128L85.8484 22.1774C85.6078 22.4399 85.4766 22.768 85.4766 23.1398Z" fill="white"/>
<path d="M102.208 10.4982H103.936V18.3283C103.936 19.4656 104.177 20.5154 104.68 21.434C105.183 22.3526 105.861 23.0744 106.758 23.6212C107.633 24.1461 108.661 24.4304 109.754 24.4304H110.388C110.804 24.4304 111.176 24.2992 111.46 24.0367C111.744 23.7743 111.898 23.4243 111.898 23.0306C111.898 22.637 111.766 22.287 111.526 22.0245C111.285 21.7402 110.957 21.609 110.563 21.609H109.754C108.857 21.609 108.157 21.3028 107.611 20.7123C107.042 20.0998 106.758 19.3125 106.758 18.3501V10.4982H109.929C110.323 10.4982 110.629 10.367 110.87 10.1483C111.11 9.90769 111.219 9.62336 111.219 9.27342C111.219 8.9016 111.088 8.5954 110.87 8.35481C110.629 8.11422 110.323 8.00487 109.929 8.00487H106.758V3.54306C106.758 3.1275 106.626 2.79943 106.364 2.5151C106.102 2.25264 105.752 2.12141 105.336 2.12141C104.92 2.12141 104.592 2.25264 104.33 2.53697C104.067 2.79943 103.936 3.14937 103.936 3.54306V7.98299H102.208C101.815 7.98299 101.509 8.11422 101.268 8.33294C101.027 8.57353 100.918 8.87973 100.918 9.25155C100.918 9.60149 101.049 9.90769 101.268 10.1264C101.487 10.3889 101.815 10.4982 102.208 10.4982Z" fill="white"/>
<path d="M52.6896 24.4305C53.1052 24.4305 53.4332 24.2993 53.7176 24.0368C53.98 23.7743 54.1113 23.4463 54.1113 23.0526V15.1788C54.1113 13.451 54.5924 12.1387 55.5329 11.2638C56.4515 10.4108 57.6545 9.95151 59.1199 9.92964C60.6071 9.95151 61.8101 10.4108 62.7287 11.2638C63.6692 12.1605 64.1503 13.4728 64.1503 15.1788V23.0526C64.1503 23.4463 64.2816 23.7743 64.544 24.0368C64.8065 24.2993 65.1564 24.4305 65.572 24.4305C65.9657 24.4305 66.2937 24.2993 66.5562 24.0368C66.8187 23.7743 66.9499 23.4463 66.9499 23.0526V15.1788C66.9499 13.5384 66.6218 12.0949 65.9438 10.892C65.2876 9.68905 64.3472 8.77045 63.1661 8.15804C61.985 7.54564 60.6509 7.21756 59.1855 7.21756H59.0761H59.0105C57.5451 7.21756 56.2109 7.52377 55.0299 8.15804C53.8488 8.79232 52.9302 9.71092 52.2522 10.892C51.596 12.0731 51.2461 13.5166 51.2461 15.1788V23.0526C51.2461 23.4463 51.3773 23.7743 51.6398 24.0368C51.9679 24.2774 52.2959 24.4305 52.6896 24.4305Z" fill="white"/>
<path d="M94.0284 30.4236C92.7161 29.6799 91.2507 29.3081 89.6104 29.3081C87.97 29.3081 86.4827 29.6799 85.1704 30.4236C83.8581 31.1672 82.8083 32.217 82.0647 33.5512C81.321 34.8635 80.9492 36.3726 80.9492 37.9911C80.9492 39.6096 81.321 41.1188 82.0647 42.4311C82.8083 43.7434 83.8581 44.7932 85.1704 45.5368C86.4827 46.2805 87.97 46.6523 89.6104 46.6523C91.2289 46.6523 92.738 46.2805 94.0503 45.5368C95.3626 44.7932 96.4124 43.7434 97.1561 42.4311C97.8997 41.1188 98.2715 39.6315 98.2715 37.9911C98.2715 36.3508 97.8997 34.8635 97.1342 33.5512C96.3906 32.217 95.3407 31.1672 94.0284 30.4236ZM95.4938 37.9911C95.4938 39.1284 95.2314 40.1783 94.7283 41.0969C94.2253 42.0155 93.5254 42.7373 92.6286 43.2622C91.7319 43.7871 90.7258 44.0496 89.6104 44.0496C88.5168 44.0496 87.4888 43.7871 86.5921 43.2622C85.6953 42.7373 84.9736 42.0155 84.4705 41.0969C83.9675 40.1783 83.705 39.1284 83.705 37.9911C83.705 36.8319 83.9675 35.7821 84.4705 34.8635C84.9736 33.9449 85.6953 33.2231 86.5921 32.6982C87.4888 32.1733 88.4949 31.9108 89.6104 31.9108C90.7258 31.9108 91.7538 32.1733 92.6286 32.6982C93.5035 33.2231 94.2253 33.9449 94.7283 34.8635C95.2314 35.7602 95.4938 36.8319 95.4938 37.9911Z" fill="white"/>
<path d="M113.341 29.5707C112.947 29.352 112.422 29.3739 112.006 29.6145C111.788 29.7457 111.613 29.9425 111.525 30.1831L105.992 42.3L100.414 30.205C100.305 29.9644 100.152 29.7676 99.9333 29.6363C99.5396 29.3958 99.0147 29.3958 98.6647 29.5926C98.0086 29.9207 97.8555 30.4237 97.8555 30.7737C97.8555 30.9705 97.8992 31.1455 97.9648 31.2986L104.679 45.5589C105.029 46.3244 105.598 46.4775 105.992 46.4775C106.582 46.4775 107.063 46.1713 107.37 45.5589L113.997 31.2548C114.062 31.058 114.106 30.9049 114.106 30.7518C114.106 30.2269 113.844 29.8113 113.341 29.5707Z" fill="white"/>
<path d="M74.9118 30.029C73.7745 29.4166 72.4622 29.0886 71.0406 29.0886H70.9531H70.8656C69.444 29.0886 68.1317 29.3948 66.9943 30.029C66.0757 30.5321 65.2884 31.2538 64.676 32.1506C64.0635 31.232 63.2762 30.5321 62.3576 30.029C61.2202 29.4166 59.9079 29.0886 58.4863 29.0886H58.3988H58.3113C56.8897 29.0886 55.5774 29.3948 54.44 30.029C53.3027 30.6633 52.3841 31.5819 51.728 32.7849C51.0718 33.9659 50.7656 35.4094 50.7656 37.0717V44.9455C50.7656 45.3391 50.8969 45.6672 51.1593 45.9297C51.4218 46.1921 51.7498 46.3452 52.1217 46.3452C52.5154 46.3452 52.8653 46.214 53.1278 45.9297C53.3902 45.6672 53.5214 45.3391 53.5214 44.9455V37.0717C53.5214 35.3438 53.9807 34.0315 54.8994 33.1348C55.7961 32.2818 56.9772 31.8225 58.3988 31.8006C59.8423 31.8225 61.0234 32.2818 61.8983 33.1348C62.8169 34.0315 63.2762 35.3438 63.2762 37.0717V44.9455C63.2762 45.3391 63.4074 45.6672 63.6699 45.9297C63.8886 46.1484 64.1729 46.2796 64.5228 46.3234C64.6103 46.3234 64.6759 46.3452 64.829 46.3234C65.1571 46.2796 65.4415 46.1484 65.6602 45.9297C65.9226 45.6672 66.0539 45.3391 66.0539 44.9455V37.0717C66.0539 35.3438 66.5132 34.0315 67.4318 33.1348C68.3285 32.2818 69.5096 31.8225 70.9312 31.8006C72.3747 31.8225 73.5558 32.2818 74.4307 33.1348C75.3493 34.0315 75.8086 35.3438 75.8086 37.0717V44.9455C75.8086 45.3391 75.9398 45.6672 76.2023 45.9297C76.4647 46.1921 76.7928 46.3452 77.2084 46.3452C77.5802 46.3452 77.9083 46.214 78.1707 45.9297C78.4332 45.6672 78.5644 45.3391 78.5644 44.9455V37.0717C78.5644 35.4313 78.2363 33.9878 77.6021 32.7849C76.9678 31.5819 76.0492 30.6414 74.9118 30.029Z" fill="white"/>
</svg>
