<svg width="179" height="50" viewBox="0 0 179 50" fill="none"
    xmlns="http://www.w3.org/2000/svg">
    <g clip-path="url(#clip0_7_40)">
        <path d="M48.8803 38.1603C48.4903 43.8817 43.2249 49.1302 37.4851 49.5189C36.1878 49.5978 34.8919 49.6632 33.5946 49.7166C28.6857 49.9224 23.7781 49.9584 18.8705 49.8249C16.544 49.7607 14.2175 49.6592 11.8911 49.5189C8.58896 49.2945 5.445 47.4631 3.29541 44.8595C1.70735 42.9359 0.662039 40.5915 0.495861 38.1603C-0.0200922 29.6563 -0.0200922 21.1537 0.495861 12.6497C0.887182 6.92697 6.15125 1.67979 11.8924 1.29106C16.7772 0.995838 21.6634 0.870269 26.5495 0.913016C30.1947 0.945076 33.8385 1.07065 37.4851 1.28972C42.1112 1.60365 46.4305 5.07416 48.1351 9.40496C48.5452 10.4469 48.8052 11.5383 48.8803 12.6484C49.0907 16.1109 49.2139 19.5747 49.2542 23.0372C49.3104 28.0787 49.1871 33.1188 48.8803 38.1589V38.1603Z" fill="#AA4B42"/>
        <path d="M48.8803 38.1603C48.4903 43.8817 43.2249 49.1302 37.4851 49.5189C36.1878 49.5978 34.8919 49.6632 33.5946 49.7166C28.6857 49.9224 23.7781 49.9584 18.8705 49.8249C16.544 49.7607 14.2175 49.6592 11.8911 49.5189C8.58896 49.2945 5.445 47.4631 3.29541 44.8595C1.70735 42.9359 0.662039 40.5915 0.495861 38.1603C-0.0200922 29.6563 -0.0200922 21.1537 0.495861 12.6497C0.887182 6.92697 6.15125 1.67979 11.8924 1.29106C16.7772 0.995838 21.6634 0.870269 26.5495 0.913016C30.1947 0.945076 33.8385 1.07065 37.4851 1.28972C42.1112 1.60365 46.4305 5.07416 48.1351 9.40496C48.5452 10.4469 48.8052 11.5383 48.8803 12.6484C49.0907 16.1109 49.2139 19.5747 49.2542 23.0372C49.3104 28.0787 49.1871 33.1188 48.8803 38.1589V38.1603Z" fill="#C62E26"/>
        <path d="M48.8803 38.1603C48.4904 43.8817 43.225 49.1302 37.4851 49.519C36.1879 49.5978 34.892 49.6632 33.5947 49.7167C28.6858 49.9224 23.7782 49.9584 18.8706 49.8249C16.5441 49.7607 14.2176 49.6592 11.8912 49.519C8.58905 49.2945 5.44508 47.4631 3.2955 44.8595C3.18561 43.5718 3.13066 42.2667 3.13066 40.9495C3.13066 23.7826 12.5666 8.81453 26.5496 0.913025C30.1948 0.945085 33.8386 1.07065 37.4851 1.28973C42.1113 1.60365 46.4306 5.07417 48.1352 9.40497C48.5453 10.4469 48.8053 11.5383 48.8803 12.6484C49.0907 16.1109 49.214 19.5747 49.2542 23.0372C49.3105 28.0787 49.1872 33.1188 48.8803 38.159V38.1603Z" fill="#ED6E2D"/>
        <path d="M48.8803 38.1603C48.4904 43.8817 43.225 49.1302 37.4851 49.519C36.1879 49.5978 34.892 49.6632 33.5947 49.7167C28.6858 49.9224 23.7782 49.9584 18.8706 49.8249C18.0437 47.0089 17.6001 44.0313 17.6001 40.9495C17.6001 23.8935 31.1691 9.99942 48.1352 9.40497C48.5453 10.4469 48.8053 11.5383 48.8803 12.6484C49.0907 16.1109 49.214 19.5747 49.2542 23.0372C49.3105 28.0787 49.1872 33.1188 48.8803 38.159V38.1603Z" fill="#F6C470"/>
        <path d="M48.8803 38.1603C48.4904 43.8817 43.225 49.1302 37.4851 49.519C36.1879 49.5978 34.892 49.6632 33.5947 49.7167C28.6858 49.9224 23.7782 49.9584 18.8706 49.8249C18.0437 47.0089 17.6001 44.0313 17.6001 40.9495C17.6001 23.8935 31.1691 9.99942 48.1352 9.40497C48.5453 10.4469 48.8053 11.5383 48.8803 12.6484C49.0907 16.1109 49.214 19.5747 49.2542 23.0372C49.3105 28.0787 49.1872 33.1188 48.8803 38.159V38.1603Z" fill="#EDC45D"/>
        <path d="M48.8803 38.1603C48.4904 43.8817 43.225 49.1302 37.4851 49.5189C36.1879 49.5977 34.892 49.6632 33.5947 49.7166C32.1326 47.1251 31.299 44.1341 31.299 40.9495C31.299 31.0616 39.3359 23.0452 49.2542 23.0385C49.3105 28.08 49.1872 33.1201 48.8803 38.1603Z" fill="#F3EBE2"/>
        <path d="M61.5728 13.4485H68.9288C69.9259 13.4485 70.8921 13.5527 71.8289 13.7611C72.7656 13.9695 73.5979 14.3128 74.3256 14.7897C75.0533 15.2666 75.6362 15.8931 76.0745 16.6679C76.5127 17.4427 76.7325 18.3872 76.7325 19.4999C76.7325 21.0308 76.2996 22.2771 75.4312 23.2403C74.5641 24.2047 73.3834 24.8553 71.8878 25.1919L77.5392 34.5508H72.9948L68.0912 25.61H65.3399V34.5508H61.5728V13.4485ZM68.4196 22.5389C68.9583 22.5389 69.4957 22.4989 70.0344 22.4201C70.5732 22.3412 71.0556 22.1916 71.4845 21.9726C71.9133 21.7535 72.2671 21.4409 72.5459 21.0335C72.8246 20.626 72.964 20.105 72.964 19.4692C72.964 18.8934 72.834 18.4219 72.5753 18.0532C72.3167 17.6858 71.987 17.3933 71.589 17.1742C71.1896 16.9565 70.7367 16.8069 70.2288 16.7267C69.7208 16.6479 69.2277 16.6078 68.7492 16.6078H65.3399V22.5389H68.4196Z" fill="#421A09"/>
        <path d="M87.6157 32.7314H87.5259C87.1668 33.3673 86.5892 33.8896 85.7918 34.2957C84.9944 34.7031 84.0871 34.9062 83.0713 34.9062C82.4924 34.9062 81.8906 34.8314 81.2621 34.6831C80.6336 34.5348 80.056 34.2863 79.528 33.9377C79 33.5904 78.5604 33.1335 78.212 32.5671C77.8635 32.0007 77.6893 31.3007 77.6893 30.4658C77.6893 29.3931 77.9935 28.5382 78.6006 27.9024C79.209 27.2665 79.9917 26.7802 80.9472 26.4423C81.9041 26.1043 82.9654 25.8812 84.1314 25.7717C85.2973 25.6621 86.4377 25.6074 87.5554 25.6074V25.2494C87.5554 24.3557 87.2311 23.6944 86.5838 23.267C85.9365 22.8395 85.1633 22.6258 84.2667 22.6258C83.5095 22.6258 82.7818 22.7847 82.0836 23.1027C81.3854 23.4206 80.8078 23.808 80.3495 24.2649L78.4961 22.0888C79.3136 21.334 80.2543 20.7676 81.3211 20.3896C82.3878 20.0129 83.4693 19.8232 84.5656 19.8232C85.8414 19.8232 86.8934 20.0022 87.7203 20.3602C88.5471 20.7182 89.1998 21.1844 89.6782 21.7615C90.1566 22.3386 90.4903 22.9838 90.6793 23.6985C90.8682 24.4131 90.9634 25.1291 90.9634 25.8438V34.5468H87.6144V32.7287L87.6157 32.7314ZM87.5568 28.0226H86.75C86.1711 28.0226 85.564 28.048 84.9261 28.0974C84.2882 28.1468 83.6998 28.2563 83.1624 28.4247C82.6237 28.5943 82.1761 28.8321 81.8169 29.1407C81.4578 29.4493 81.2782 29.8714 81.2782 30.4071C81.2782 30.745 81.3533 31.0282 81.502 31.2566C81.6521 31.4851 81.8464 31.6694 82.085 31.8084C82.3249 31.9473 82.5929 32.0461 82.8917 32.1062C83.1906 32.1664 83.4894 32.1957 83.7883 32.1957C85.0239 32.1957 85.9607 31.8685 86.5986 31.2126C87.2365 30.5567 87.5554 29.663 87.5554 28.5302V28.0239L87.5568 28.0226Z" fill="#421A09"/>
        <path d="M92.9079 15.3855C92.9079 14.8097 93.1224 14.3075 93.5512 13.88C93.9801 13.4525 94.5228 13.2388 95.1808 13.2388C95.8388 13.2388 96.3923 13.4432 96.8399 13.8493C97.2889 14.2567 97.5127 14.7683 97.5127 15.3842C97.5127 16 97.2889 16.5116 96.8399 16.919C96.391 17.3265 95.8388 17.5295 95.1808 17.5295C94.5228 17.5295 93.9801 17.3158 93.5512 16.8883C93.1224 16.4608 92.9079 15.9599 92.9079 15.3828V15.3855ZM93.4159 20.244H97.0034V34.5508H93.4159V20.244Z" fill="#421A09"/>
        <path d="M99.5751 20.244H102.984V22.5389H103.045C103.364 21.8229 103.917 21.1924 104.704 20.646C105.491 20.0997 106.423 19.8258 107.499 19.8258C108.436 19.8258 109.239 19.9901 109.906 20.3174C110.574 20.646 111.122 21.0775 111.551 21.6145C111.979 22.1515 112.293 22.7674 112.493 23.462C112.692 24.158 112.792 24.8726 112.792 25.6074V34.5481H109.204V26.6199C109.204 26.2031 109.175 25.7663 109.114 25.3081C109.054 24.8513 108.924 24.4398 108.726 24.0711C108.526 23.7038 108.251 23.4005 107.903 23.1614C107.554 22.9237 107.091 22.8034 106.512 22.8034C105.933 22.8034 105.436 22.9183 105.016 23.1467C104.598 23.3752 104.254 23.6677 103.984 24.0257C103.715 24.3837 103.51 24.7965 103.372 25.2627C103.232 25.7303 103.163 26.2018 103.163 26.6787V34.5468H99.5751V20.2399V20.244Z" fill="#421A09"/>
        <path d="M114.719 12.0179H118.306V22.062H118.396C118.576 21.8229 118.805 21.5758 119.084 21.3166C119.362 21.0588 119.696 20.8197 120.085 20.602C120.473 20.3842 120.928 20.1999 121.445 20.0503C121.964 19.9007 122.552 19.8272 123.208 19.8272C124.226 19.8272 125.162 20.0209 126.019 20.4083C126.876 20.7957 127.614 21.3273 128.231 22.0033C128.849 22.6792 129.328 23.474 129.667 24.3877C130.006 25.3015 130.175 26.286 130.175 27.3386C130.175 28.3913 130.01 29.3798 129.681 30.3042C129.353 31.2286 128.884 32.0328 128.276 32.7181C127.667 33.4033 126.93 33.9497 126.063 34.3571C125.196 34.7646 124.215 34.9676 123.117 34.9676C122.1 34.9676 121.149 34.7485 120.262 34.3117C119.374 33.8749 118.682 33.239 118.183 32.4041H118.123V34.5495H114.713V12.0179H114.719ZM126.275 25.6835C126.106 25.1372 125.851 24.6456 125.512 24.2087C125.173 23.7719 124.746 23.4193 124.227 23.1508C123.708 22.8823 123.101 22.7487 122.403 22.7487C121.745 22.7487 121.158 22.8876 120.639 23.1654C120.121 23.4433 119.679 23.8013 119.309 24.2381C118.94 24.6749 118.661 25.1719 118.471 25.7289C118.282 26.286 118.187 26.8417 118.187 27.3974C118.187 27.9531 118.282 28.5048 118.471 29.0512C118.661 29.5975 118.94 30.0891 119.309 30.5259C119.677 30.9628 120.121 31.3154 120.639 31.5839C121.158 31.8524 121.745 31.986 122.403 31.986C123.101 31.986 123.708 31.8471 124.227 31.5692C124.746 31.2914 125.174 30.9334 125.512 30.4965C125.851 30.0597 126.106 29.5628 126.275 29.0057C126.445 28.45 126.529 27.893 126.529 27.3373C126.529 26.7816 126.445 26.2299 126.275 25.6835Z" fill="#421A09"/>
        <path d="M131.107 27.3373C131.107 26.2045 131.311 25.1759 131.72 24.2528C132.128 23.3284 132.681 22.5389 133.379 21.883C134.077 21.2271 134.904 20.7209 135.861 20.3628C136.818 20.0048 137.835 19.8258 138.911 19.8258C139.987 19.8258 141.004 20.0048 141.961 20.3628C142.918 20.7209 143.745 21.2271 144.443 21.883C145.14 22.5389 145.693 23.3284 146.102 24.2528C146.511 25.1772 146.715 26.2045 146.715 27.3373C146.715 28.4701 146.509 29.5027 146.102 30.4364C145.693 31.3702 145.14 32.1703 144.443 32.8356C143.745 33.5022 142.918 34.0232 141.961 34.3999C141.004 34.7766 139.987 34.9663 138.911 34.9663C137.835 34.9663 136.818 34.7766 135.861 34.3999C134.904 34.0232 134.077 33.5008 133.379 32.8356C132.681 32.1703 132.127 31.3702 131.72 30.4364C131.311 29.5027 131.107 28.4687 131.107 27.3373ZM134.755 27.3373C134.755 27.8943 134.84 28.45 135.01 29.0057C135.179 29.5628 135.433 30.0597 135.772 30.4965C136.111 30.9334 136.539 31.2914 137.057 31.5692C137.576 31.8471 138.194 31.986 138.911 31.986C139.628 31.986 140.246 31.8471 140.764 31.5692C141.283 31.2914 141.71 30.9334 142.05 30.4965C142.389 30.0597 142.642 29.5628 142.812 29.0057C142.981 28.45 143.067 27.893 143.067 27.3373C143.067 26.7816 142.982 26.2299 142.812 25.6835C142.642 25.1371 142.389 24.6456 142.05 24.2087C141.71 23.7719 141.282 23.4192 140.764 23.1507C140.246 22.8822 139.628 22.7487 138.911 22.7487C138.194 22.7487 137.575 22.8822 137.057 23.1507C136.539 23.4192 136.11 23.7719 135.772 24.2087C135.433 24.6456 135.179 25.1385 135.01 25.6835C134.84 26.2299 134.755 26.7816 134.755 27.3373Z" fill="#421A09"/>
        <path d="M147.552 27.3373C147.552 26.2045 147.756 25.1759 148.165 24.2528C148.573 23.3284 149.125 22.5389 149.824 21.883C150.522 21.2271 151.349 20.7209 152.306 20.3628C153.262 20.0048 154.28 19.8258 155.356 19.8258C156.432 19.8258 157.449 20.0048 158.406 20.3628C159.363 20.7209 160.19 21.2271 160.888 21.883C161.585 22.5389 162.138 23.3284 162.547 24.2528C162.956 25.1772 163.159 26.2045 163.159 27.3373C163.159 28.4701 162.954 29.5027 162.547 30.4364C162.138 31.3702 161.585 32.1703 160.888 32.8356C160.19 33.5022 159.363 34.0232 158.406 34.3999C157.449 34.7766 156.432 34.9663 155.356 34.9663C154.28 34.9663 153.262 34.7766 152.306 34.3999C151.349 34.0232 150.522 33.5008 149.824 32.8356C149.125 32.1703 148.572 31.3702 148.165 30.4364C147.756 29.5027 147.552 28.4687 147.552 27.3373ZM151.2 27.3373C151.2 27.8943 151.284 28.45 151.455 29.0057C151.623 29.5628 151.878 30.0597 152.217 30.4965C152.556 30.9334 152.984 31.2914 153.502 31.5692C154.021 31.8471 154.639 31.986 155.356 31.986C156.073 31.986 156.691 31.8471 157.209 31.5692C157.728 31.2914 158.155 30.9334 158.494 30.4965C158.833 30.0597 159.087 29.5628 159.257 29.0057C159.426 28.45 159.512 27.893 159.512 27.3373C159.512 26.7816 159.427 26.2299 159.257 25.6835C159.087 25.1371 158.833 24.6456 158.494 24.2087C158.155 23.7719 157.726 23.4192 157.209 23.1507C156.691 22.8822 156.073 22.7487 155.356 22.7487C154.639 22.7487 154.02 22.8822 153.502 23.1507C152.984 23.4192 152.555 23.7719 152.217 24.2087C151.878 24.6456 151.623 25.1385 151.455 25.6835C151.284 26.2299 151.2 26.7816 151.2 27.3373Z" fill="#421A09"/>
        <path d="M172.818 19.8272C173.755 19.8272 174.557 19.9915 175.225 20.3188C175.892 20.6474 176.44 21.0789 176.869 21.6159C177.298 22.1529 177.611 22.7687 177.811 23.4633C178.011 24.1593 178.11 24.874 178.11 25.6087V34.5495H174.522V26.6814C174.522 26.2646 174.493 25.8318 174.433 25.3843C174.372 24.9368 174.248 24.5307 174.059 24.162C173.868 23.7946 173.6 23.4914 173.252 23.2536C172.904 23.0145 172.44 22.8956 171.862 22.8956C171.285 22.8956 170.786 23.0051 170.367 23.2229C169.949 23.442 169.599 23.7345 169.32 24.1019C169.041 24.4692 168.831 24.882 168.693 25.3389C168.553 25.7957 168.484 26.2633 168.484 26.7402V34.5495H164.896V12.0179H168.484V22.241H168.544C168.683 21.9432 168.888 21.6506 169.157 21.3621C169.426 21.0749 169.739 20.8157 170.099 20.5873C170.458 20.3588 170.865 20.1745 171.325 20.0356C171.783 19.8966 172.282 19.8272 172.82 19.8272H172.818Z" fill="#421A09"/>
    </g>
    <defs>
        <clipPath id="clip0_7_40">
            <rect width="179" height="50" fill="white"/>
        </clipPath>
    </defs>
</svg>
