<?xml version="1.0" encoding="UTF-8"?> <svg xmlns:dc="http://purl.org/dc/elements/1.1/" xmlns:cc="http://creativecommons.org/ns#" xmlns:rdf="http://www.w3.org/1999/02/22-rdf-syntax-ns#" xmlns:svg="http://www.w3.org/2000/svg" xmlns="http://www.w3.org/2000/svg" xml:space="preserve" id="svg2" version="1.1" viewBox="0 0 2053.33 606.23"><metadata id="metadata8"></metadata><defs id="defs6"><clipPath id="clipPath30"><path id="path28" d="M 0,536 H 1722 V 0 H 0 Z"></path></clipPath></defs><g transform="matrix(1.3333333,0,0,-1.3333333,0,714.66667)" id="g10"><g transform="translate(646.3408,152.1064)" id="g12"><path id="path14" style="fill:#00749a;fill-opacity:1;fill-rule:nonzero;stroke:none" d="M 0,0 12.9,-34.14 25.68,0 h 7.08 L 15.78,-42.6 H 10.02 L -7.14,0 Z"></path></g><g transform="translate(696.5005,144.6064)" id="g16"><path id="path18" style="fill:#00749a;fill-opacity:1;fill-rule:nonzero;stroke:none" d="M 0,0 -7.08,-18.54 H 6.84 Z M -19.92,-35.1 -2.76,7.5 h 5.52 l 17.1,-42.6 H 12.72 L 8.16,-23.52 H -8.28 l -4.44,-11.58 z"></path></g><g transform="translate(721.52,109.5068)" id="g20"><path id="path22" style="fill:#00749a;fill-opacity:1;fill-rule:nonzero;stroke:none" d="M 0,0 V 42.6 H 6.72 V 5.94 H 29.58 V 0 Z"></path></g><g id="g24"><g clip-path="url(#clipPath30)" id="g26"><g transform="translate(799.04,130.8672)" id="g32"><path id="path34" style="fill:#00749a;fill-opacity:1;fill-rule:nonzero;stroke:none" d="m 0,0 c 0,2.239 -0.31,4.299 -0.93,6.18 -0.62,1.88 -1.53,3.489 -2.73,4.83 -1.2,1.34 -2.66,2.389 -4.38,3.149 -1.72,0.76 -3.681,1.141 -5.88,1.141 h -8.4 v -30.72 h 8.4 c 2.24,0 4.23,0.39 5.97,1.17 1.74,0.779 3.2,1.859 4.38,3.239 1.179,1.381 2.07,3.01 2.67,4.891 C -0.3,-4.24 0,-2.2 0,0 m -29.04,-21.36 v 42.599 h 15.12 c 3.44,0 6.45,-0.56 9.03,-1.679 C -2.31,18.439 -0.15,16.92 1.59,15 3.33,13.08 4.64,10.83 5.52,8.25 6.399,5.67 6.84,2.919 6.84,0 6.84,-3.24 6.35,-6.171 5.37,-8.79 4.39,-11.411 3,-13.65 1.2,-15.511 c -1.8,-1.859 -3.98,-3.3 -6.54,-4.319 -2.56,-1.021 -5.42,-1.53 -8.58,-1.53 z"></path></g><g transform="translate(811.1592,153.3066)" id="g36"><path id="path38" style="fill:#00749a;fill-opacity:1;fill-rule:nonzero;stroke:none" d="M 0,0 C 0.8,0 1.62,-0.09 2.46,-0.27 3.3,-0.45 4.07,-0.74 4.77,-1.14 5.47,-1.54 6.05,-2.08 6.51,-2.76 6.97,-3.44 7.2,-4.28 7.2,-5.28 v -7.68 H 1.68 v 6.54 c 0,0.68 -0.22,1.119 -0.66,1.32 C 0.58,-4.9 0.24,-4.8 0,-4.8 Z"></path></g><g transform="translate(830.7207,130.8066)" id="g40"><path id="path42" style="fill:#00749a;fill-opacity:1;fill-rule:nonzero;stroke:none" d="M 0,0 C 0,-2 0.309,-3.94 0.93,-5.819 1.55,-7.7 2.439,-9.359 3.6,-10.8 c 1.16,-1.44 2.559,-2.59 4.2,-3.45 1.639,-0.86 3.479,-1.29 5.519,-1.29 2.08,0 3.951,0.45 5.611,1.351 1.659,0.899 3.059,2.088 4.2,3.569 1.14,1.479 2.01,3.14 2.609,4.98 0.601,1.839 0.901,3.72 0.901,5.64 0,2.04 -0.321,3.99 -0.96,5.851 -0.641,1.859 -1.54,3.499 -2.701,4.92 -1.16,1.418 -2.56,2.558 -4.2,3.419 -1.64,0.86 -3.46,1.29 -5.46,1.29 -2.08,0 -3.95,-0.45 -5.609,-1.35 C 6.05,13.23 4.649,12.061 3.51,10.62 2.37,9.181 1.5,7.53 0.899,5.67 0.3,3.811 0,1.92 0,0 m 13.26,-21.6 c -3,0 -5.731,0.61 -8.191,1.83 -2.46,1.22 -4.58,2.84 -6.359,4.86 -1.78,2.019 -3.15,4.33 -4.11,6.931 -0.96,2.599 -1.44,5.258 -1.44,7.979 0,2.84 0.51,5.56 1.529,8.16 1.021,2.6 2.431,4.9 4.231,6.901 1.8,1.999 3.939,3.588 6.42,4.769 2.479,1.18 5.18,1.771 8.099,1.771 3,0 5.731,-0.631 8.191,-1.891 2.46,-1.26 4.569,-2.91 6.33,-4.95 1.76,-2.04 3.12,-4.35 4.08,-6.93 0.96,-2.58 1.439,-5.211 1.439,-7.89 0,-2.84 -0.509,-5.56 -1.53,-8.16 -1.019,-2.6 -2.429,-4.889 -4.229,-6.87 -1.8,-1.979 -3.93,-3.56 -6.39,-4.74 -2.46,-1.18 -5.151,-1.77 -8.07,-1.77"></path></g><path id="path44" style="fill:#00749a;fill-opacity:1;fill-rule:nonzero;stroke:none" d="m 871.219,152.047 h 6.72 v -42.54 h -6.72 z"></path><g transform="translate(912.7979,142.0869)" id="g46"><path id="path48" style="fill:#00749a;fill-opacity:1;fill-rule:nonzero;stroke:none" d="M 0,0 C -0.399,0.439 -0.98,0.909 -1.739,1.41 -2.5,1.909 -3.39,2.379 -4.409,2.82 -5.43,3.26 -6.561,3.619 -7.8,3.9 c -1.24,0.28 -2.56,0.42 -3.96,0.42 -2.639,0 -4.64,-0.52 -6,-1.56 -1.36,-1.04 -2.04,-2.5 -2.04,-4.38 0,-1.041 0.22,-1.89 0.66,-2.55 0.44,-0.66 1.1,-1.23 1.981,-1.71 0.879,-0.48 1.979,-0.91 3.3,-1.29 1.319,-0.381 2.859,-0.79 4.62,-1.23 2.079,-0.561 3.989,-1.14 5.729,-1.74 1.74,-0.6 3.22,-1.35 4.441,-2.25 1.219,-0.9 2.169,-2.01 2.849,-3.33 0.68,-1.32 1.021,-2.961 1.021,-4.92 0,-2.241 -0.42,-4.14 -1.261,-5.7 -0.84,-1.56 -1.971,-2.83 -3.39,-3.81 -1.42,-0.981 -3.07,-1.701 -4.95,-2.161 -1.881,-0.459 -3.88,-0.689 -6,-0.689 -3.24,0 -6.381,0.489 -9.42,1.47 -3.04,0.979 -5.78,2.409 -8.219,4.29 l 3.12,5.76 c 0.519,-0.52 1.259,-1.101 2.219,-1.74 0.96,-0.64 2.09,-1.23 3.39,-1.77 1.3,-0.54 2.731,-1 4.29,-1.38 1.561,-0.381 3.181,-0.57 4.86,-0.57 2.56,0 4.55,0.469 5.97,1.41 1.42,0.939 2.13,2.31 2.13,4.11 0,1.08 -0.26,1.98 -0.779,2.7 -0.521,0.72 -1.282,1.35 -2.281,1.89 -1,0.54 -2.219,1.019 -3.66,1.44 -1.439,0.42 -3.08,0.869 -4.92,1.35 -2.12,0.56 -3.97,1.149 -5.549,1.769 -1.581,0.621 -2.891,1.371 -3.93,2.25 -1.041,0.88 -1.83,1.911 -2.37,3.091 -0.54,1.179 -0.811,2.61 -0.811,4.29 0,2.079 0.391,3.93 1.17,5.55 0.78,1.62 1.861,2.98 3.24,4.08 1.38,1.1 3.01,1.929 4.89,2.489 1.88,0.561 3.9,0.841 6.061,0.841 2.96,0 5.649,-0.461 8.07,-1.381 C -0.91,8.02 1.22,6.879 3.061,5.52 Z"></path></g><g transform="translate(953.5977,115.4473)" id="g50"><path id="path52" style="fill:#00749a;fill-opacity:1;fill-rule:nonzero;stroke:none" d="M 0,0 V -5.94 H -29.22 V 36.659 H -0.539 V 30.72 H -22.5 V 18.6 H -3.479 V 13.02 H -22.5 L -22.5,0 Z"></path></g><g transform="translate(493.6479,441.229)" id="g54"><path id="path56" style="fill:#251c30;fill-opacity:1;fill-rule:nonzero;stroke:none" d="m 0,0 c 0,0 1.795,12.265 22.735,14.957 0,0 22.735,1.496 26.026,-10.171 0,0 1.495,-11.368 -24.381,-16.154 0,0 -24.081,-5.085 -24.38,11.368"></path></g><g transform="translate(393.7339,385.3872)" id="g58"><path id="path60" style="fill:#00749a;fill-opacity:1;fill-rule:nonzero;stroke:none" d="m 0,0 c 0,0 22.338,16.153 64.615,12.564 0,0 32.509,-0.996 33.107,-19.146 0,0 2.188,-20.939 -30.915,-37.691 0,0 -15.555,-10.368 -46.068,-0.996 0,0 -24.726,7.179 -33.102,21.538 0,0 -6.581,12.363 12.363,23.731"></path></g><g transform="translate(381.4692,352.9814)" id="g62"><path id="path64" style="fill:#c91b2c;fill-opacity:1;fill-rule:nonzero;stroke:none" d="m 0,0 c 0,0 12.863,-15.855 47.863,-21.239 0,0 20.94,-15.855 25.427,-32.907 0,0 8.975,-32.606 -25.128,-39.486 0,0 -25.128,-5.385 -82.265,-3.291 0,0 -101.11,3.291 -125.042,13.162 0,0 -32.906,8.077 -34.701,14.658 0,0 -11.966,14.659 16.453,33.206 0,0 28.419,17.948 86.154,28.418 0,0 55.94,10.77 91.239,7.479"></path></g><g transform="translate(339.2896,249.1787)" id="g66"><path id="path68" style="fill:#f4a62a;fill-opacity:1;fill-rule:nonzero;stroke:none" d="m 0,0 c 0,0 95.427,-0.897 104.103,9.572 0,0 58.631,-1.496 60.127,-43.376 0,0 7.704,-81.666 -67.644,-110.383 0,0 -35.859,-22.736 -174.064,-23.633 0,0 -104.103,-1.795 -154.658,23.633 0,0 -33.803,13.46 8.077,50.554 0,0 36.197,33.504 109.188,60.727 0,0 54.444,21.538 114.871,32.906"></path></g><g transform="translate(671.4492,406.0332)" id="g70"><path id="path72" style="fill:#251c30;fill-opacity:1;fill-rule:nonzero;stroke:none" d="m 0,0 h 8.436 c 5.72,0 10.346,1.567 13.881,4.703 3.488,3.087 5.278,7.09 5.371,12.01 -0.093,4.052 -1.465,7.017 -4.116,8.9 -2.744,1.783 -6.257,2.676 -10.535,2.676 -3.719,0 -6.391,-0.242 -8.018,-0.724 z m -12.549,42.395 c 7.064,1.624 15.639,2.435 25.725,2.435 4.646,0 9.199,-0.384 13.658,-1.151 4.367,-0.863 8.222,-2.374 11.568,-4.533 C 45.358,35.405 48.928,28.954 49.116,19.792 49.022,12.454 46.981,6.53 42.99,2.021 38.907,-2.727 33.662,-6.133 27.259,-8.195 v -0.432 c 5.524,-2.831 8.564,-8.874 9.122,-18.131 0.696,-5.804 1.323,-11.392 1.881,-16.763 0.37,-5.421 0.997,-9.258 1.879,-11.512 H 19.032 c -0.884,3.022 -1.789,10.84 -2.72,23.455 -0.417,5.995 -1.72,10.168 -3.902,12.519 -2.092,2.158 -5.184,3.237 -9.274,3.237 h -6.274 l -7.11,-39.211 h -20.864 z"></path></g><g transform="translate(801.5718,454.0225)" id="g74"><path id="path76" style="fill:#251c30;fill-opacity:1;fill-rule:nonzero;stroke:none" d="M 0,0 -18.531,-22.291 H -33.37 L -19.995,0 Z m -22.074,-50.842 c 0,1.889 -0.674,3.367 -2.021,4.432 -1.254,1.114 -3.112,1.672 -5.573,1.672 -4.646,-0.096 -8.362,-1.744 -11.147,-4.942 -2.833,-3.15 -4.576,-6.517 -5.227,-10.102 15.978,-0.48 23.968,2.45 23.968,8.794 z m 10.541,-48.132 c -4.088,-2.044 -8.407,-3.494 -12.96,-4.349 -4.693,-0.902 -9.034,-1.354 -13.029,-1.354 -20.16,0.431 -30.239,10.6 -30.239,30.506 0,11.511 3.67,21.775 11.011,30.793 7.155,9.065 17.052,13.742 29.689,14.03 7.341,-0.096 13.196,-2.014 17.564,-5.756 4.368,-3.741 6.598,-9.042 6.691,-15.9 -0.093,-9.065 -4.091,-15.445 -11.994,-19.138 -7.996,-3.741 -19.083,-5.421 -33.261,-5.037 0,-2.475 0.72,-4.949 2.16,-7.424 2.836,-3.785 7.297,-5.677 13.384,-5.677 7.527,0 14.057,1.528 19.588,4.585 z"></path></g><g transform="translate(814.6772,369.7896)" id="g78"><path id="path80" style="fill:#251c30;fill-opacity:1;fill-rule:nonzero;stroke:none" d="m 0,0 c 2.138,-1.059 4.903,-2.143 8.296,-3.249 3.253,-1.203 6.6,-1.805 10.039,-1.805 5.809,0.24 8.714,2.425 8.714,6.556 0,1.729 -0.628,3.338 -1.882,4.826 -1.347,1.393 -3.625,2.883 -6.832,4.467 -4.298,2.065 -7.914,4.707 -10.845,7.925 -3.077,3.073 -4.615,6.82 -4.615,11.238 0.094,7.684 3.047,13.784 8.862,18.298 5.577,4.323 13.02,6.533 22.334,6.629 8.508,-0.191 14.556,-1.409 18.15,-3.656 L 47.197,36.246 c -1.437,0.77 -3.351,1.468 -5.742,2.094 -2.537,0.674 -5.408,1.011 -8.614,1.011 -6.078,-0.097 -9.164,-2.209 -9.259,-6.339 0,-2.883 3.042,-5.596 9.124,-8.142 4.096,-1.872 7.728,-4.418 10.894,-7.637 1.535,-1.584 2.724,-3.361 3.563,-5.33 0.883,-2.067 1.327,-4.371 1.327,-6.916 -0.093,-8.262 -3.095,-14.553 -9.004,-18.875 -5.91,-4.371 -13.634,-6.556 -23.172,-6.556 -9.342,0.429 -16.482,2.29 -21.422,5.584 z"></path></g><g transform="translate(926.4033,403.1802)" id="g82"><path id="path84" style="fill:#251c30;fill-opacity:1;fill-rule:nonzero;stroke:none" d="M 0,0 C 0,1.889 -0.674,3.367 -2.021,4.433 -3.274,5.546 -5.133,6.104 -7.594,6.104 -12.238,6.008 -15.955,4.36 -18.741,1.163 -21.574,-1.988 -23.316,-5.355 -23.966,-8.939 -7.989,-9.419 0,-6.489 0,-0.146 Z m 10.542,-48.131 c -4.088,-2.045 -8.408,-3.494 -12.96,-4.349 -4.692,-0.903 -9.035,-1.355 -13.029,-1.355 -20.16,0.432 -30.24,10.6 -30.24,30.506 0,11.512 3.67,21.776 11.011,30.793 7.155,9.066 17.052,13.743 29.691,14.03 C 2.354,21.398 8.21,19.48 12.577,15.739 16.945,11.997 19.176,6.697 19.269,-0.162 19.176,-9.227 15.178,-15.607 7.274,-19.3 c -7.996,-3.741 -19.083,-5.421 -33.26,-5.036 0,-2.476 0.718,-4.95 2.161,-7.424 2.834,-3.786 7.295,-5.678 13.383,-5.678 7.527,0 14.056,1.528 19.587,4.585 z"></path></g><g transform="translate(1010.0615,408.1323)" id="g86"><path id="path88" style="fill:#251c30;fill-opacity:1;fill-rule:nonzero;stroke:none" d="m 0,0 c -1.537,0.384 -3.353,0.577 -5.447,0.577 -3.26,0 -6.263,-0.938 -9.009,-2.812 -2.841,-1.779 -5.309,-4.205 -7.402,-7.282 -4.425,-6.296 -6.636,-13.025 -6.636,-20.185 0,-3.557 0.723,-6.417 2.165,-8.58 1.443,-2.26 3.54,-3.388 6.288,-3.388 3.353,0 6.659,1.97 9.92,5.912 3.119,3.941 5.541,10.284 7.265,19.032 z m -5.576,-57.132 c 0.186,4.22 0.469,8.993 0.847,14.318 h -0.289 c -3.307,-5.805 -7.01,-9.929 -11.108,-12.375 -4.238,-2.398 -8.455,-3.598 -12.646,-3.598 -6.375,0.144 -11.47,2.47 -15.287,6.979 -3.908,4.508 -5.862,10.552 -5.862,18.131 0,12.758 4.091,24.198 12.273,34.319 8.087,10.312 20.663,15.612 37.723,15.9 9.064,-0.096 16.735,-1.271 23.011,-3.525 L 16.08,-24.684 C 14.184,-35.62 13.235,-46.437 13.235,-57.132 Z"></path></g><g transform="translate(1121.6777,423.0195)" id="g90"><path id="path92" style="fill:#251c30;fill-opacity:1;fill-rule:nonzero;stroke:none" d="m 0,0 -8.854,-48.564 c -1.629,-9.162 -2.909,-16.98 -3.838,-23.456 h -18.101 l 1.255,11.656 -0.278,0.144 c -7.351,-9.065 -15.353,-13.55 -24.004,-13.454 -11.818,0 -17.819,6.738 -18.004,20.217 0,3.837 0.464,8.249 1.394,13.239 L -62.962,0 h 20.586 l -7.188,-38.618 c -0.652,-3.458 -0.977,-6.653 -0.977,-9.583 0,-2.257 0.581,-4.177 1.743,-5.763 0.929,-1.682 2.673,-2.521 5.23,-2.521 3.719,0 7.112,2.065 10.18,6.196 3.114,4.034 5.345,9.653 6.695,16.86 L -20.559,0 Z"></path></g><g transform="translate(702.0605,257.2314)" id="g94"><path id="path96" style="fill:#251c30;fill-opacity:1;fill-rule:nonzero;stroke:none" d="m 0,0 h -34.17 l -4.393,-24.188 H 1.08 l -3.526,-18.125 h -60.106 l 18.27,99.289 H 12.691 L 9.274,38.852 H -27.844 L -32.017,17.829 H 3.416 Z"></path></g><g transform="translate(720.6704,214.9189)" id="g98"><path id="path100" style="fill:#251c30;fill-opacity:1;fill-rule:nonzero;stroke:none" d="m 0,0 8.854,48.637 c 1.655,9.113 2.873,16.908 3.654,23.383 h 18.136 l -1.36,-11.872 h 0.367 C 36.844,69.166 45.408,73.675 55.344,73.675 67.17,73.482 73.176,66.912 73.362,53.961 73.268,50.123 72.865,46.095 72.155,41.874 L 64.344,0 H 43.395 l 7.71,39.986 c 0.545,2.545 0.816,5.212 0.816,7.997 0,2.738 -0.514,4.851 -1.542,6.341 -1.076,1.537 -3.034,2.306 -5.873,2.306 -3.573,0 -7.073,-2.066 -10.5,-6.196 C 30.58,46.109 27.961,39.963 26.15,31.99 L 20.518,0 Z"></path></g><g transform="translate(848.8916,306.4365)" id="g102"><path id="path104" style="fill:#251c30;fill-opacity:1;fill-rule:nonzero;stroke:none" d="M 0,0 -3.559,-19.498 H 11.439 L 8.302,-35.607 H -6.547 l -4.741,-24.371 c -0.752,-3.221 -1.127,-6.273 -1.127,-9.157 -0.192,-3.941 1.809,-5.961 6.002,-6.056 1.906,0 3.768,0.095 5.582,0.288 l -2.303,-16.615 c -3.256,-1.102 -7.304,-1.654 -12.14,-1.654 -6.093,0.144 -10.676,1.634 -13.746,4.467 -3.023,2.834 -4.535,6.58 -4.535,11.239 0,3.603 0.512,8.021 1.535,13.256 l 5.302,28.603 h -8.819 l 2.853,16.109 h 8.974 l 2.574,13.599 z"></path></g><g transform="translate(866.5576,214.9189)" id="g106"><path id="path108" style="fill:#251c30;fill-opacity:1;fill-rule:nonzero;stroke:none" d="m 0,0 7.948,42.881 c 1.813,12.087 2.998,21.8 3.556,29.139 h 17.711 c -0.28,-4.797 -0.699,-9.737 -1.257,-14.821 h 0.558 c 2.464,4.892 5.602,8.849 9.413,11.871 3.718,3.069 7.971,4.605 12.759,4.605 1.394,-0.097 2.672,-0.144 3.835,-0.144 L 50.549,52.817 C 49.665,52.913 48.597,52.96 47.342,52.96 40.974,52.864 36.094,50.319 32.7,45.323 29.167,40.374 26.773,34.227 25.519,26.878 L 20.708,0 Z"></path></g><g transform="translate(974.6172,267.0991)" id="g110"><path id="path112" style="fill:#251c30;fill-opacity:1;fill-rule:nonzero;stroke:none" d="M 0,0 C 0,1.889 -0.673,3.367 -2.02,4.433 -3.274,5.547 -5.133,6.104 -7.594,6.104 -12.238,6.008 -15.955,4.36 -18.741,1.163 -21.574,-1.988 -23.316,-5.355 -23.966,-8.939 -7.989,-9.419 0,-6.489 0,-0.146 Z m 10.542,-48.131 c -4.088,-2.044 -8.408,-3.494 -12.96,-4.349 -4.692,-0.902 -9.035,-1.354 -13.029,-1.354 -20.16,0.431 -30.24,10.599 -30.24,30.505 0,11.512 3.671,21.776 11.011,30.794 7.156,9.065 17.052,13.742 29.691,14.03 7.34,-0.097 13.196,-2.015 17.562,-5.756 4.368,-3.741 6.599,-9.042 6.692,-15.901 -0.093,-9.065 -4.091,-15.445 -11.994,-19.137 -7.996,-3.742 -19.083,-5.421 -33.261,-5.037 0,-2.476 0.718,-4.95 2.161,-7.424 2.834,-3.785 7.295,-5.677 13.383,-5.677 7.527,0 14.056,1.527 19.588,4.585 z"></path></g><g transform="translate(1030.1953,232.624)" id="g114"><path id="path116" style="fill:#251c30;fill-opacity:1;fill-rule:nonzero;stroke:none" d="m 0,0 c 2.191,-2.263 5.339,-3.394 9.442,-3.394 2.844,0 5.455,0.939 7.835,2.816 2.423,1.878 4.475,4.237 6.155,7.078 3.636,6.113 5.502,12.902 5.594,20.365 0,3.081 -0.652,5.801 -1.96,8.161 -1.445,2.358 -3.8,3.586 -7.065,3.683 C 16.082,38.612 12.56,36.543 9.435,32.498 6.168,28.453 3.859,22.844 2.508,15.672 Z m -29.345,-46.844 13.526,73.315 c 1.691,10.12 3.018,19.617 3.979,28.491 H 6.55 L 5.225,43.882 h 0.278 c 6.097,7.962 13.59,11.991 22.478,12.088 7.63,-0.097 13.308,-2.759 17.032,-7.987 3.722,-5.18 5.585,-11.655 5.585,-19.425 C 50.457,15.799 46.782,4.743 39.571,-4.61 32.313,-14.204 22.451,-19.119 9.984,-19.359 c -5.815,0.238 -10.094,1.212 -12.838,2.922 h -0.488 l -5.493,-30.407 z"></path></g><g transform="translate(1095.5498,214.9189)" id="g118"><path id="path120" style="fill:#251c30;fill-opacity:1;fill-rule:nonzero;stroke:none" d="m 0,0 7.948,42.881 c 1.813,12.087 2.998,21.8 3.556,29.139 H 29.215 C 28.936,67.223 28.517,62.283 27.958,57.199 h 0.559 c 2.463,4.892 5.601,8.849 9.413,11.871 3.717,3.069 7.97,4.605 12.758,4.605 1.395,-0.097 2.673,-0.144 3.835,-0.144 L 50.549,52.817 C 49.665,52.913 48.597,52.96 47.342,52.96 40.974,52.864 36.094,50.319 32.7,45.323 29.167,40.374 26.774,34.227 25.519,26.878 L 20.708,0 Z"></path></g><g transform="translate(1203.6094,267.0991)" id="g122"><path id="path124" style="fill:#251c30;fill-opacity:1;fill-rule:nonzero;stroke:none" d="M 0,0 C 0,1.889 -0.674,3.367 -2.021,4.433 -3.274,5.547 -5.133,6.104 -7.594,6.104 -12.238,6.008 -15.955,4.36 -18.741,1.163 -21.574,-1.988 -23.316,-5.355 -23.966,-8.939 -7.989,-9.419 0,-6.489 0,-0.146 Z m 10.542,-48.131 c -4.088,-2.044 -8.408,-3.494 -12.96,-4.349 -4.692,-0.902 -9.035,-1.354 -13.029,-1.354 -20.16,0.431 -30.24,10.599 -30.24,30.505 0,11.512 3.67,21.776 11.012,30.794 7.154,9.065 17.051,13.742 29.69,14.03 7.339,-0.097 13.195,-2.015 17.562,-5.756 4.368,-3.741 6.599,-9.042 6.692,-15.901 -0.093,-9.065 -4.091,-15.445 -11.995,-19.137 -7.996,-3.742 -19.083,-5.421 -33.26,-5.037 0,-2.476 0.719,-4.95 2.161,-7.424 2.834,-3.785 7.295,-5.677 13.383,-5.677 7.527,0 14.056,1.527 19.588,4.585 z"></path></g><g transform="translate(1235.5596,214.9189)" id="g126"><path id="path128" style="fill:#251c30;fill-opacity:1;fill-rule:nonzero;stroke:none" d="m 0,0 8.854,48.637 c 1.655,9.113 2.873,16.908 3.654,23.383 H 30.643 L 29.284,60.148 H 29.65 C 36.844,69.166 45.408,73.675 55.344,73.675 67.17,73.482 73.176,66.912 73.361,53.961 73.267,50.123 72.865,46.095 72.154,41.874 L 64.344,0 H 43.395 l 7.71,39.986 c 0.544,2.545 0.816,5.212 0.816,7.997 0,2.738 -0.515,4.851 -1.542,6.341 -1.076,1.537 -3.034,2.306 -5.872,2.306 -3.574,0 -7.074,-2.066 -10.5,-6.196 C 30.58,46.109 27.96,39.963 26.15,31.99 L 20.518,0 Z"></path></g><g transform="translate(1376.793,269.96)" id="g130"><path id="path132" style="fill:#251c30;fill-opacity:1;fill-rule:nonzero;stroke:none" d="m 0,0 c -1.813,1.586 -4.536,2.428 -8.164,2.524 -6.188,-0.193 -11.19,-3.149 -15.004,-8.867 -3.908,-5.817 -5.909,-12.378 -6.002,-19.682 0.093,-8.94 3.303,-13.458 9.632,-13.554 3.117,0 6.213,1.683 9.284,5.047 2.93,3.316 5.117,8.386 6.561,15.212 z M 29.381,49.571 15.229,-27.053 c -1.61,-9.737 -2.69,-19.066 -3.241,-27.988 H -6.691 l 0.976,11.656 h -0.278 c -3.026,-4.604 -6.54,-7.939 -10.542,-10.001 -4.096,-2.206 -8.26,-3.309 -12.495,-3.309 -6.003,0.143 -11.051,2.518 -15.146,7.123 -4.187,4.604 -6.328,11.27 -6.421,20.001 0.093,12.998 4.137,24.198 12.133,33.599 7.903,9.545 18.527,14.413 31.868,14.606 3.16,0 6.298,-0.597 9.414,-1.79 l 6.137,32.727 z"></path></g><g transform="translate(1412.6719,214.9189)" id="g134"><path id="path136" style="fill:#251c30;fill-opacity:1;fill-rule:nonzero;stroke:none" d="m 0,0 7.947,42.881 c 1.813,12.087 2.998,21.8 3.557,29.139 h 17.71 C 28.936,67.223 28.516,62.283 27.957,57.199 h 0.559 c 2.463,4.892 5.601,8.849 9.413,11.871 3.718,3.069 7.97,4.605 12.759,4.605 1.394,-0.097 2.672,-0.144 3.834,-0.144 L 50.548,52.817 C 49.664,52.913 48.596,52.96 47.341,52.96 40.973,52.864 36.093,50.319 32.699,45.323 29.166,40.374 26.773,34.227 25.518,26.878 L 20.707,0 Z"></path></g><g transform="translate(1520.7314,267.0991)" id="g138"><path id="path140" style="fill:#251c30;fill-opacity:1;fill-rule:nonzero;stroke:none" d="M 0,0 C 0,1.889 -0.674,3.367 -2.021,4.433 -3.274,5.547 -5.133,6.104 -7.594,6.104 -12.238,6.008 -15.955,4.36 -18.741,1.163 -21.574,-1.988 -23.316,-5.355 -23.966,-8.939 -7.989,-9.419 0,-6.489 0,-0.146 Z m 10.542,-48.131 c -4.088,-2.044 -8.408,-3.494 -12.96,-4.349 -4.692,-0.902 -9.035,-1.354 -13.029,-1.354 -20.16,0.431 -30.24,10.599 -30.24,30.505 0,11.512 3.67,21.776 11.012,30.794 7.154,9.065 17.051,13.742 29.69,14.03 7.339,-0.097 13.195,-2.015 17.562,-5.756 4.368,-3.741 6.599,-9.042 6.692,-15.901 -0.093,-9.065 -4.091,-15.445 -11.995,-19.137 -7.996,-3.742 -19.083,-5.421 -33.26,-5.037 0,-2.476 0.719,-4.95 2.161,-7.424 2.834,-3.785 7.295,-5.677 13.383,-5.677 7.527,0 14.056,1.527 19.588,4.585 z"></path></g></g></g></g></svg> 