<svg height="122" viewBox="0 0 418 122" width="420" xmlns="http://www.w3.org/2000/svg"><g fill="#a00057"><path d="m407.14 21.805c-17.291-21.465-46.432-21.215-46.432-21.215h-40.754v18.992h40.754c13.34 0 36.793 7.648 36.793 40.953s-25.441 42.184-38.035 42.184c-12.59 0-19.754-2.219-19.754-2.219v-70.309h-20l.242 86.09s27.168 11.09 58.54 1.973c31.37-9.113 37.534-39.73 37.534-39.73s8.422-35.274-8.863-56.739zm-184.026 26.995c.223 0-.226 22.984-.226 34.11 0 11.128-13.223 21.25-23.774 21.25-10.547 0-25.117-8.403-25.117-29.411 0-21.012 12.11-31.148 28.48-31.148 16.368 0 20.637 5.199 20.637 5.199zm-68.629 22.98c0 28.18 15.25 49.93 40.594 49.93 20.184 0 28.258-14.586 28.258-14.586v12.605h17.937s.446-81.57.446-82.074c0 0-13.906-11.12-37.457-11.12s-49.79 17.046-49.79 45.25zm-99.125 20.997-.442 1.145-.414-1.145c-.254-.699-25.399-70.129-30.406-83.515-2.848-7.657-7.254-9.262-10.426-9.262a9.81 9.81 0 0 0 -3.867.79l-9.805 5.924c2.379 6.422 36.54 98.594 39.344 105.082 2.765 6.383 8.656 9.086 10.531 9.086h9.336c7.246 0 11.695-9.672 11.863-10.043l39.09-104.477c-.625-.445-2.746-1.8-9.277-5.25a8.413 8.413 0 0 0 -3.957-1.042c-5.817 0-10.016 6.703-10.364 7.282zm0 0" fill-rule="evenodd"/><path d="m120.43.793h20.379v18.789h-20.38zm0 0"/><path d="m120.43 119.684h20.375v-89.48h-20.375zm0 0" fill-rule="evenodd"/><path d="m285.75.793h20.379v18.789h-20.379zm0 0"/><path d="m285.75 119.684h20.375v-89.48h-20.375zm0 0" fill-rule="evenodd"/></g></svg>